<mxfile host="app.diagrams.net" agent="Mozilla/5.0 (Windows NT 10.0; Win64; x64) AppleWebKit/537.36 (KHTML, like Gecko) Chrome/130.0.0.0 Safari/537.36" version="24.8.3" pages="3">
  <diagram name="[System - L1] Schedules" id="qtujpR-AZwXAlX09bfCt">
    <mxGraphModel dx="2412" dy="810" grid="1" gridSize="10" guides="1" tooltips="1" connect="1" arrows="1" fold="1" page="1" pageScale="1" pageWidth="850" pageHeight="1100" math="0" shadow="0">
      <root>
        <mxCell id="0" />
        <mxCell id="1" parent="0" />
        <object placeholders="1" c4Name="Teacher" c4Type="Person" c4Description="Accesses the system to view their own schedule, assigns himself to teach some subjects as well as creates his own subjects." label="&lt;font style=&quot;font-size: 16px&quot;&gt;&lt;b&gt;%c4Name%&lt;/b&gt;&lt;/font&gt;&lt;div&gt;[%c4Type%]&lt;/div&gt;&lt;br&gt;&lt;div&gt;&lt;font style=&quot;font-size: 11px&quot;&gt;&lt;font color=&quot;#cccccc&quot;&gt;%c4Description%&lt;/font&gt;&lt;/div&gt;" id="0dHBqOXeKtchUKEok1H6-1">
          <mxCell style="html=1;fontSize=11;dashed=0;whiteSpace=wrap;fillColor=#083F75;strokeColor=#06315C;fontColor=#ffffff;shape=mxgraph.c4.person2;align=center;metaEdit=1;points=[[0.5,0,0],[1,0.5,0],[1,0.75,0],[0.75,1,0],[0.5,1,0],[0.25,1,0],[0,0.75,0],[0,0.5,0]];resizable=0;" parent="1" vertex="1">
            <mxGeometry x="170" y="110" width="200" height="180" as="geometry" />
          </mxCell>
        </object>
        <object placeholders="1" c4Name="Scheduling committe" c4Type="Person" c4Description="Manages and edits schedules. " label="&lt;font style=&quot;font-size: 16px&quot;&gt;&lt;b&gt;%c4Name%&lt;/b&gt;&lt;/font&gt;&lt;div&gt;[%c4Type%]&lt;/div&gt;&lt;br&gt;&lt;div&gt;&lt;font style=&quot;font-size: 11px&quot;&gt;&lt;font color=&quot;#cccccc&quot;&gt;%c4Description%&lt;/font&gt;&lt;/div&gt;" id="0dHBqOXeKtchUKEok1H6-2">
          <mxCell style="html=1;fontSize=11;dashed=0;whiteSpace=wrap;fillColor=#083F75;strokeColor=#4D4D4D;fontColor=#ffffff;shape=mxgraph.c4.person2;align=center;metaEdit=1;points=[[0.5,0,0],[1,0.5,0],[1,0.75,0],[0.75,1,0],[0.5,1,0],[0.25,1,0],[0,0.75,0],[0,0.5,0]];resizable=0;" parent="1" vertex="1">
            <mxGeometry x="170" y="770" width="200" height="180" as="geometry" />
          </mxCell>
        </object>
        <object placeholders="1" c4Name="Student" c4Type="Person" c4Description="Views schedules with all of their chosen subjects and sees the necessary details about them (time, building, room)." label="&lt;font style=&quot;font-size: 16px&quot;&gt;&lt;b&gt;%c4Name%&lt;/b&gt;&lt;/font&gt;&lt;div&gt;[%c4Type%]&lt;/div&gt;&lt;br&gt;&lt;div&gt;&lt;font style=&quot;font-size: 11px&quot;&gt;&lt;font color=&quot;#cccccc&quot;&gt;%c4Description%&lt;/font&gt;&lt;/div&gt;" id="0dHBqOXeKtchUKEok1H6-6">
          <mxCell style="html=1;fontSize=11;dashed=0;whiteSpace=wrap;fillColor=#083F75;strokeColor=#06315C;fontColor=#ffffff;shape=mxgraph.c4.person2;align=center;metaEdit=1;points=[[0.5,0,0],[1,0.5,0],[1,0.75,0],[0.75,1,0],[0.5,1,0],[0.25,1,0],[0,0.75,0],[0,0.5,0]];resizable=0;" parent="1" vertex="1">
            <mxGeometry x="560" y="410" width="200" height="180" as="geometry" />
          </mxCell>
        </object>
        <mxCell id="0dHBqOXeKtchUKEok1H6-7" style="edgeStyle=none;curved=1;rounded=0;orthogonalLoop=1;jettySize=auto;html=1;fontSize=12;startSize=8;endSize=8;" parent="1" edge="1">
          <mxGeometry relative="1" as="geometry">
            <mxPoint x="910" y="340" as="targetPoint" />
          </mxGeometry>
        </mxCell>
        <mxCell id="jR5_HjYalqpyGWiUNo-7-1" style="edgeStyle=orthogonalEdgeStyle;rounded=0;orthogonalLoop=1;jettySize=auto;html=1;entryX=1;entryY=0.5;entryDx=0;entryDy=0;entryPerimeter=0;" parent="1" source="Dq1iaG9OTaE8klVDhz4a-6" target="jR5_HjYalqpyGWiUNo-7-2" edge="1">
          <mxGeometry relative="1" as="geometry">
            <mxPoint x="-60" y="500" as="targetPoint" />
          </mxGeometry>
        </mxCell>
        <object placeholders="1" c4Name="Scheduling System" c4Type="Software System" c4Description="Description of software system." label="&lt;font style=&quot;font-size: 16px&quot;&gt;&lt;b&gt;%c4Name%&lt;/b&gt;&lt;/font&gt;&lt;div&gt;[%c4Type%]&lt;/div&gt;&lt;br&gt;&lt;div&gt;&lt;font style=&quot;font-size: 11px&quot;&gt;&lt;font color=&quot;#cccccc&quot;&gt;%c4Description%&lt;/font&gt;&lt;/div&gt;" id="Dq1iaG9OTaE8klVDhz4a-6">
          <mxCell style="rounded=1;whiteSpace=wrap;html=1;labelBackgroundColor=none;fillColor=#1061B0;fontColor=#ffffff;align=center;arcSize=10;strokeColor=#0D5091;metaEdit=1;resizable=0;points=[[0.25,0,0],[0.5,0,0],[0.75,0,0],[1,0.25,0],[1,0.5,0],[1,0.75,0],[0.75,1,0],[0.5,1,0],[0.25,1,0],[0,0.75,0],[0,0.5,0],[0,0.25,0]];glass=0;shadow=0;perimeter=rhombusPerimeter;" parent="1" vertex="1">
            <mxGeometry x="150" y="440" width="240" height="120" as="geometry" />
          </mxCell>
        </object>
        <mxCell id="Dq1iaG9OTaE8klVDhz4a-7" style="edgeStyle=orthogonalEdgeStyle;rounded=0;orthogonalLoop=1;jettySize=auto;html=1;entryX=1;entryY=0.5;entryDx=0;entryDy=0;entryPerimeter=0;" parent="1" source="0dHBqOXeKtchUKEok1H6-6" target="Dq1iaG9OTaE8klVDhz4a-6" edge="1">
          <mxGeometry relative="1" as="geometry" />
        </mxCell>
        <mxCell id="0dHBqOXeKtchUKEok1H6-8" value="Views schedules and receives notifications about schedule changes" style="edgeLabel;html=1;align=center;verticalAlign=middle;resizable=1;points=[];resizeWidth=1;resizeHeight=1;fontSize=15;" parent="Dq1iaG9OTaE8klVDhz4a-7" connectable="0" vertex="1">
          <mxGeometry relative="1" as="geometry">
            <mxPoint x="45" y="100" as="offset" />
          </mxGeometry>
        </mxCell>
        <mxCell id="Dq1iaG9OTaE8klVDhz4a-8" style="edgeStyle=orthogonalEdgeStyle;rounded=0;orthogonalLoop=1;jettySize=auto;html=1;entryX=0.5;entryY=0;entryDx=0;entryDy=0;entryPerimeter=0;" parent="1" source="0dHBqOXeKtchUKEok1H6-1" target="Dq1iaG9OTaE8klVDhz4a-6" edge="1">
          <mxGeometry relative="1" as="geometry" />
        </mxCell>
        <mxCell id="D-vh6WdsNPRoXJiJ9ip5-2" value="Views their schedule and picks lessons to teach" style="edgeLabel;html=1;align=center;verticalAlign=middle;resizable=0;points=[];fontSize=15;" parent="Dq1iaG9OTaE8klVDhz4a-8" vertex="1" connectable="0">
          <mxGeometry x="-0.1829" y="-1" relative="1" as="geometry">
            <mxPoint as="offset" />
          </mxGeometry>
        </mxCell>
        <mxCell id="Dq1iaG9OTaE8klVDhz4a-9" style="edgeStyle=orthogonalEdgeStyle;rounded=0;orthogonalLoop=1;jettySize=auto;html=1;entryX=0.5;entryY=1;entryDx=0;entryDy=0;entryPerimeter=0;" parent="1" source="0dHBqOXeKtchUKEok1H6-2" target="Dq1iaG9OTaE8klVDhz4a-6" edge="1">
          <mxGeometry relative="1" as="geometry" />
        </mxCell>
        <mxCell id="Dq1iaG9OTaE8klVDhz4a-10" value="Generates, approves, manages&lt;div style=&quot;font-size: 15px;&quot;&gt;schedules&lt;/div&gt;" style="edgeLabel;html=1;align=center;verticalAlign=middle;resizable=0;points=[];rotation=0;fontSize=15;" parent="Dq1iaG9OTaE8klVDhz4a-9" connectable="0" vertex="1">
          <mxGeometry x="-0.1048" y="1" relative="1" as="geometry">
            <mxPoint x="1" y="-16" as="offset" />
          </mxGeometry>
        </mxCell>
        <mxCell id="Qd0v_CW3Y3ffImYfJ0aE-1" value="PŘIDAT EXTERNÍ SYSTÉM?" style="text;html=1;align=center;verticalAlign=middle;resizable=0;points=[];autosize=1;strokeColor=none;fillColor=none;" parent="1" vertex="1">
          <mxGeometry x="450" y="758" width="180" height="30" as="geometry" />
        </mxCell>
        <object placeholders="1" c4Name="Schedules" c4Type="SystemScopeBoundary" c4Application="Software System" label="&lt;font style=&quot;font-size: 16px&quot;&gt;&lt;b&gt;&lt;div style=&quot;text-align: left&quot;&gt;%c4Name%&lt;/div&gt;&lt;/b&gt;&lt;/font&gt;&lt;div style=&quot;text-align: left&quot;&gt;[%c4Application%]&lt;/div&gt;" id="W4_AGXmt3jFUjyCqHeEo-1">
          <mxCell style="rounded=1;fontSize=11;whiteSpace=wrap;html=1;dashed=1;arcSize=20;fillColor=none;strokeColor=#666666;fontColor=#333333;labelBackgroundColor=none;align=left;verticalAlign=bottom;labelBorderColor=none;spacingTop=0;spacing=10;dashPattern=8 4;metaEdit=1;rotatable=0;perimeter=rectanglePerimeter;noLabel=0;labelPadding=0;allowArrows=0;connectable=0;expand=0;recursiveResize=0;editable=1;pointerEvents=0;absoluteArcSize=1;points=[[0.25,0,0],[0.5,0,0],[0.75,0,0],[1,0.25,0],[1,0.5,0],[1,0.75,0],[0.75,1,0],[0.5,1,0],[0.25,1,0],[0,0.75,0],[0,0.5,0],[0,0.25,0]];" parent="1" vertex="1">
            <mxGeometry x="100" y="65" width="700" height="970" as="geometry" />
          </mxCell>
        </object>
        <object placeholders="1" c4Name="SIS" c4Type="Software System" c4Description="Description of external software system." label="&lt;font style=&quot;font-size: 16px&quot;&gt;&lt;b&gt;%c4Name%&lt;/b&gt;&lt;/font&gt;&lt;div&gt;[%c4Type%]&lt;/div&gt;&lt;br&gt;&lt;div&gt;&lt;font style=&quot;font-size: 11px&quot;&gt;&lt;font color=&quot;#cccccc&quot;&gt;%c4Description%&lt;/font&gt;&lt;/div&gt;" id="jR5_HjYalqpyGWiUNo-7-2">
          <mxCell style="rounded=1;whiteSpace=wrap;html=1;labelBackgroundColor=none;fillColor=#8C8496;fontColor=#ffffff;align=center;arcSize=10;strokeColor=#736782;metaEdit=1;resizable=0;points=[[0.25,0,0],[0.5,0,0],[0.75,0,0],[1,0.25,0],[1,0.5,0],[1,0.75,0],[0.75,1,0],[0.5,1,0],[0.25,1,0],[0,0.75,0],[0,0.5,0],[0,0.25,0]];" parent="1" vertex="1">
            <mxGeometry x="-250" y="440" width="240" height="120" as="geometry" />
          </mxCell>
        </object>
      </root>
    </mxGraphModel>
  </diagram>
  <diagram id="fIzFs-NpOIrmaG3VaDMS" name="[System - L2] Scheduling System">
    <mxGraphModel grid="1" page="0" gridSize="10" guides="1" tooltips="1" connect="1" arrows="1" fold="1" pageScale="1" pageWidth="827" pageHeight="1169" math="0" shadow="0">
      <root>
        <mxCell id="0" />
        <mxCell id="1" parent="0" />
        <mxCell id="INO2cEVHdNO9NDZZdFHo-3" style="edgeStyle=orthogonalEdgeStyle;rounded=0;orthogonalLoop=1;jettySize=auto;html=1;entryX=0;entryY=0.5;entryDx=0;entryDy=0;entryPerimeter=0;exitX=0.75;exitY=1;exitDx=0;exitDy=0;exitPerimeter=0;dashed=1;dashPattern=8 8;" edge="1" parent="1">
          <mxGeometry relative="1" as="geometry">
            <mxPoint x="-370" y="50" as="targetPoint" />
            <Array as="points">
              <mxPoint x="-620" y="-70" />
              <mxPoint x="-620" y="50" />
            </Array>
            <mxPoint x="-580" y="-70" as="sourcePoint" />
          </mxGeometry>
        </mxCell>
        <mxCell id="eZHE_ST1if3r3bzbPqHE-4" value="Interacts and views&amp;nbsp;&lt;div&gt;Schedules,&amp;nbsp;&lt;div&gt;Preferences&lt;br style=&quot;font-size: 15px;&quot;&gt;through UI interface&lt;/div&gt;&lt;/div&gt;" style="edgeLabel;html=1;align=center;verticalAlign=middle;resizable=0;points=[];fontSize=15;" vertex="1" connectable="0" parent="INO2cEVHdNO9NDZZdFHo-3">
          <mxGeometry x="0.1588" y="-7" relative="1" as="geometry">
            <mxPoint x="23" y="-7" as="offset" />
          </mxGeometry>
        </mxCell>
        <object placeholders="1" c4Name="Teacher" c4Type="Person" c4Description="Accesses the system to view their own schedule, assigns himself to teach some subjects as well as creates his own subjects." label="&lt;font style=&quot;font-size: 16px&quot;&gt;&lt;b&gt;%c4Name%&lt;/b&gt;&lt;/font&gt;&lt;div&gt;[%c4Type%]&lt;/div&gt;&lt;br&gt;&lt;div&gt;&lt;font style=&quot;font-size: 11px&quot;&gt;&lt;font color=&quot;#cccccc&quot;&gt;%c4Description%&lt;/font&gt;&lt;/div&gt;" id="k1OwtV_KXARb9kCkeU_a-1">
          <mxCell style="html=1;fontSize=11;dashed=0;whiteSpace=wrap;fillColor=#083F75;strokeColor=#06315C;fontColor=#ffffff;shape=mxgraph.c4.person2;align=center;metaEdit=1;points=[[0.5,0,0],[1,0.5,0],[1,0.75,0],[0.75,1,0],[0.5,1,0],[0.25,1,0],[0,0.75,0],[0,0.5,0]];resizable=0;" vertex="1" parent="1">
            <mxGeometry x="-740" y="-250" width="200" height="180" as="geometry" />
          </mxCell>
        </object>
        <object placeholders="1" c4Name="Scheduling System" c4Type="SystemScopeBoundary" c4Application="Software System" label="&lt;font style=&quot;font-size: 16px&quot;&gt;&lt;b&gt;&lt;div style=&quot;text-align: left&quot;&gt;%c4Name%&lt;/div&gt;&lt;/b&gt;&lt;/font&gt;&lt;div style=&quot;text-align: left&quot;&gt;[%c4Application%]&lt;/div&gt;" id="f-ISF5QF13lk-ZIpBBvd-1">
          <mxCell style="rounded=1;fontSize=11;whiteSpace=wrap;html=1;dashed=1;arcSize=20;fillColor=none;strokeColor=#666666;fontColor=#333333;labelBackgroundColor=none;align=left;verticalAlign=bottom;labelBorderColor=none;spacingTop=0;spacing=10;dashPattern=8 4;metaEdit=1;rotatable=0;perimeter=rectanglePerimeter;noLabel=0;labelPadding=0;allowArrows=0;connectable=0;expand=0;recursiveResize=0;editable=1;pointerEvents=0;absoluteArcSize=1;points=[[0.25,0,0],[0.5,0,0],[0.75,0,0],[1,0.25,0],[1,0.5,0],[1,0.75,0],[0.75,1,0],[0.5,1,0],[0.25,1,0],[0,0.75,0],[0,0.5,0],[0,0.25,0]];" vertex="1" parent="1">
            <mxGeometry x="-440" y="-1620" width="1690" height="1900" as="geometry" />
          </mxCell>
        </object>
        <mxCell id="A4tClLgePMG4KUA_VXG7-12" style="edgeStyle=orthogonalEdgeStyle;rounded=0;orthogonalLoop=1;jettySize=auto;html=1;dashed=1;dashPattern=8 8;" edge="1" parent="1" source="k1OwtV_KXARb9kCkeU_a-2" target="1GP7aIgIm5lXNcPJ1ERs-3">
          <mxGeometry relative="1" as="geometry">
            <Array as="points">
              <mxPoint x="240" y="-450" />
            </Array>
          </mxGeometry>
        </mxCell>
        <mxCell id="eZHE_ST1if3r3bzbPqHE-8" value="Interacts and views Schedules, Preferences&lt;div style=&quot;font-size: 15px;&quot;&gt;through UI interace&lt;/div&gt;" style="edgeLabel;html=1;align=center;verticalAlign=middle;resizable=0;points=[];fontSize=15;" vertex="1" connectable="0" parent="A4tClLgePMG4KUA_VXG7-12">
          <mxGeometry x="-0.0512" y="6" relative="1" as="geometry">
            <mxPoint x="73" y="6" as="offset" />
          </mxGeometry>
        </mxCell>
        <object placeholders="1" c4Name="Scheduling committe" c4Type="Person" c4Description="Manages and edits schedules. " label="&lt;font style=&quot;font-size: 16px&quot;&gt;&lt;b&gt;%c4Name%&lt;/b&gt;&lt;/font&gt;&lt;div&gt;[%c4Type%]&lt;/div&gt;&lt;br&gt;&lt;div&gt;&lt;font style=&quot;font-size: 11px&quot;&gt;&lt;font color=&quot;#cccccc&quot;&gt;%c4Description%&lt;/font&gt;&lt;/div&gt;" id="k1OwtV_KXARb9kCkeU_a-2">
          <mxCell style="html=1;fontSize=11;dashed=0;whiteSpace=wrap;fillColor=#083F75;strokeColor=#4D4D4D;fontColor=#ffffff;shape=mxgraph.c4.person2;align=center;metaEdit=1;points=[[0.5,0,0],[1,0.5,0],[1,0.75,0],[0.75,1,0],[0.5,1,0],[0.25,1,0],[0,0.75,0],[0,0.5,0]];resizable=0;" vertex="1" parent="1">
            <mxGeometry x="-740" y="-560" width="200" height="180" as="geometry" />
          </mxCell>
        </object>
        <object placeholders="1" c4Name="Student" c4Type="Person" c4Description="Views schedules with all of their chosen subjects and sees the necessary details about them (time, building, room)." label="&lt;font style=&quot;font-size: 16px&quot;&gt;&lt;b&gt;%c4Name%&lt;/b&gt;&lt;/font&gt;&lt;div&gt;[%c4Type%]&lt;/div&gt;&lt;br&gt;&lt;div&gt;&lt;font style=&quot;font-size: 11px&quot;&gt;&lt;font color=&quot;#cccccc&quot;&gt;%c4Description%&lt;/font&gt;&lt;/div&gt;" id="k1OwtV_KXARb9kCkeU_a-4">
          <mxCell style="html=1;fontSize=11;dashed=0;whiteSpace=wrap;fillColor=#083F75;strokeColor=#06315C;fontColor=#ffffff;shape=mxgraph.c4.person2;align=center;metaEdit=1;points=[[0.5,0,0],[1,0.5,0],[1,0.75,0],[0.75,1,0],[0.5,1,0],[0.25,1,0],[0,0.75,0],[0,0.5,0]];resizable=0;" vertex="1" parent="1">
            <mxGeometry x="1280" y="-90" width="200" height="180" as="geometry" />
          </mxCell>
        </object>
        <mxCell id="k1OwtV_KXARb9kCkeU_a-6" style="edgeStyle=orthogonalEdgeStyle;rounded=0;orthogonalLoop=1;jettySize=auto;html=1;entryX=1;entryY=0.5;entryDx=0;entryDy=0;entryPerimeter=0;" edge="1" parent="1" source="k1OwtV_KXARb9kCkeU_a-4">
          <mxGeometry relative="1" as="geometry" />
        </mxCell>
        <mxCell id="k1OwtV_KXARb9kCkeU_a-7" value="Views" style="edgeLabel;html=1;align=center;verticalAlign=middle;resizable=0;points=[];" connectable="0" vertex="1" parent="k1OwtV_KXARb9kCkeU_a-6">
          <mxGeometry x="-0.0661" relative="1" as="geometry">
            <mxPoint as="offset" />
          </mxGeometry>
        </mxCell>
        <mxCell id="k1OwtV_KXARb9kCkeU_a-8" style="edgeStyle=orthogonalEdgeStyle;rounded=0;orthogonalLoop=1;jettySize=auto;html=1;entryX=0.5;entryY=0;entryDx=0;entryDy=0;entryPerimeter=0;" edge="1" parent="1" source="k1OwtV_KXARb9kCkeU_a-1">
          <mxGeometry relative="1" as="geometry" />
        </mxCell>
        <mxCell id="k1OwtV_KXARb9kCkeU_a-9" value="Views their schedule and picks lessons to teach" style="edgeLabel;html=1;align=center;verticalAlign=middle;resizable=0;points=[];" vertex="1" connectable="0" parent="k1OwtV_KXARb9kCkeU_a-8">
          <mxGeometry x="-0.1829" y="-1" relative="1" as="geometry">
            <mxPoint as="offset" />
          </mxGeometry>
        </mxCell>
        <mxCell id="k1OwtV_KXARb9kCkeU_a-10" style="edgeStyle=orthogonalEdgeStyle;rounded=0;orthogonalLoop=1;jettySize=auto;html=1;entryX=0.5;entryY=1;entryDx=0;entryDy=0;entryPerimeter=0;" edge="1" parent="1" source="k1OwtV_KXARb9kCkeU_a-2">
          <mxGeometry relative="1" as="geometry" />
        </mxCell>
        <mxCell id="k1OwtV_KXARb9kCkeU_a-11" value="Generates, approves, manages&lt;div&gt;schedules&lt;/div&gt;" style="edgeLabel;html=1;align=center;verticalAlign=middle;resizable=0;points=[];rotation=0;" connectable="0" vertex="1" parent="k1OwtV_KXARb9kCkeU_a-10">
          <mxGeometry x="-0.1048" y="1" relative="1" as="geometry">
            <mxPoint x="1" y="-16" as="offset" />
          </mxGeometry>
        </mxCell>
        <mxCell id="slRppW_lu8dPCojZmJvE-3" value=";" style="edgeStyle=orthogonalEdgeStyle;rounded=0;orthogonalLoop=1;jettySize=auto;html=1;exitX=0.742;exitY=0.013;exitDx=0;exitDy=0;exitPerimeter=0;entryX=0;entryY=0.5;entryDx=0;entryDy=0;entryPerimeter=0;dashed=1;dashPattern=8 8;" edge="1" parent="1" source="LhGT1lA_JxfKN84wn2FE-2" target="eZHE_ST1if3r3bzbPqHE-11">
          <mxGeometry relative="1" as="geometry">
            <mxPoint x="-202" y="-810" as="targetPoint" />
            <Array as="points">
              <mxPoint x="-210" y="-28" />
              <mxPoint x="-210" y="-570" />
            </Array>
          </mxGeometry>
        </mxCell>
        <object placeholders="1" c4Name="Teacher Dashboard" c4Type="Container" c4Technology="Svelte" c4Description="Provides all functionality for teachers in a web browser" label="&lt;font style=&quot;font-size: 16px&quot;&gt;&lt;b&gt;%c4Name%&lt;/b&gt;&lt;/font&gt;&lt;div&gt;[%c4Type%:&amp;nbsp;%c4Technology%]&lt;/div&gt;&lt;br&gt;&lt;div&gt;&lt;font style=&quot;font-size: 11px&quot;&gt;&lt;font color=&quot;#E6E6E6&quot;&gt;%c4Description%&lt;/font&gt;&lt;/div&gt;" id="LhGT1lA_JxfKN84wn2FE-2">
          <mxCell style="shape=mxgraph.c4.webBrowserContainer2;whiteSpace=wrap;html=1;boundedLbl=1;rounded=0;labelBackgroundColor=none;strokeColor=#118ACD;fillColor=#23A2D9;strokeColor=#118ACD;strokeColor2=#0E7DAD;fontSize=12;fontColor=#ffffff;align=center;metaEdit=1;points=[[0.5,0,0],[1,0.25,0],[1,0.5,0],[1,0.75,0],[0.5,1,0],[0,0.75,0],[0,0.5,0],[0,0.25,0]];resizable=0;" vertex="1" parent="1">
            <mxGeometry x="-380" y="-30" width="240" height="160" as="geometry" />
          </mxCell>
        </object>
        <object placeholders="1" c4Name="Subject Database" c4Type="Container" c4Technology="MySQL" c4Description="Stores information about subjects and chosen subjects by students." label="&lt;font style=&quot;font-size: 16px&quot;&gt;&lt;b&gt;%c4Name%&lt;/b&gt;&lt;/font&gt;&lt;div&gt;[%c4Type%:&amp;nbsp;%c4Technology%]&lt;/div&gt;&lt;br&gt;&lt;div&gt;&lt;font style=&quot;font-size: 11px&quot;&gt;&lt;font color=&quot;#E6E6E6&quot;&gt;%c4Description%&lt;/font&gt;&lt;/div&gt;" id="1GP7aIgIm5lXNcPJ1ERs-1">
          <mxCell style="shape=cylinder3;size=15;whiteSpace=wrap;html=1;boundedLbl=1;rounded=0;labelBackgroundColor=none;fillColor=#23A2D9;fontSize=12;fontColor=#ffffff;align=center;strokeColor=#0E7DAD;metaEdit=1;points=[[0.5,0,0],[1,0.25,0],[1,0.5,0],[1,0.75,0],[0.5,1,0],[0,0.75,0],[0,0.5,0],[0,0.25,0]];resizable=0;" vertex="1" parent="1">
            <mxGeometry x="550" y="-1600" width="240" height="120" as="geometry" />
          </mxCell>
        </object>
        <mxCell id="y_puV2rSQO__wBB4pa0z-1" style="edgeStyle=orthogonalEdgeStyle;rounded=0;orthogonalLoop=1;jettySize=auto;html=1;dashed=1;dashPattern=8 8;exitX=1;exitY=0.5;exitDx=0;exitDy=0;exitPerimeter=0;entryX=0.75;entryY=1;entryDx=0;entryDy=0;entryPerimeter=0;" edge="1" parent="1" source="1GP7aIgIm5lXNcPJ1ERs-3" target="eZHE_ST1if3r3bzbPqHE-11">
          <mxGeometry relative="1" as="geometry" />
        </mxCell>
        <mxCell id="y_puV2rSQO__wBB4pa0z-2" value="&lt;font style=&quot;font-size: 15px;&quot;&gt;Post data&lt;/font&gt;" style="edgeLabel;html=1;align=center;verticalAlign=middle;resizable=0;points=[];" connectable="0" vertex="1" parent="y_puV2rSQO__wBB4pa0z-1">
          <mxGeometry x="0.2066" y="1" relative="1" as="geometry">
            <mxPoint x="1" y="-54" as="offset" />
          </mxGeometry>
        </mxCell>
        <object placeholders="1" c4Name="SC Dashboard" c4Type="Container" c4Technology="Svelte" c4Description="Provides all functionality for the scheduling committe." label="&lt;font style=&quot;font-size: 16px&quot;&gt;&lt;b&gt;%c4Name%&lt;/b&gt;&lt;/font&gt;&lt;div&gt;[%c4Type%:&amp;nbsp;%c4Technology%]&lt;/div&gt;&lt;br&gt;&lt;div&gt;&lt;font style=&quot;font-size: 11px&quot;&gt;&lt;font color=&quot;#E6E6E6&quot;&gt;%c4Description%&lt;/font&gt;&lt;/div&gt;" id="1GP7aIgIm5lXNcPJ1ERs-3">
          <mxCell style="shape=mxgraph.c4.webBrowserContainer2;whiteSpace=wrap;html=1;boundedLbl=1;rounded=0;labelBackgroundColor=none;strokeColor=#118ACD;fillColor=#23A2D9;strokeColor=#118ACD;strokeColor2=#0E7DAD;fontSize=12;fontColor=#ffffff;align=center;metaEdit=1;points=[[0.5,0,0],[1,0.25,0],[1,0.5,0],[1,0.75,0],[0.5,1,0],[0,0.75,0],[0,0.5,0],[0,0.25,0]];resizable=0;" vertex="1" parent="1">
            <mxGeometry x="180" y="-330" width="240" height="160" as="geometry" />
          </mxCell>
        </object>
        <object placeholders="1" c4Name="SIS Database" c4Type="Container" c4Technology="MySQL" c4Description="Stores information about school" label="&lt;font style=&quot;font-size: 16px&quot;&gt;&lt;b&gt;%c4Name%&lt;/b&gt;&lt;/font&gt;&lt;div&gt;[%c4Type%:&amp;nbsp;%c4Technology%]&lt;/div&gt;&lt;br&gt;&lt;div&gt;&lt;font style=&quot;font-size: 11px&quot;&gt;&lt;font color=&quot;#E6E6E6&quot;&gt;%c4Description%&lt;/font&gt;&lt;/div&gt;" id="bhLmAvv2JXkIKtS_Un4S-2">
          <mxCell style="shape=cylinder3;size=15;whiteSpace=wrap;html=1;boundedLbl=1;rounded=0;labelBackgroundColor=none;fillColor=#8C8496;fontSize=12;align=center;strokeColor=#666666;metaEdit=1;points=[[0.5,0,0],[1,0.25,0],[1,0.5,0],[1,0.75,0],[0.5,1,0],[0,0.75,0],[0,0.5,0],[0,0.25,0]];resizable=0;gradientColor=#b3b3b3;" vertex="1" parent="1">
            <mxGeometry x="200" y="-1810" width="240" height="120" as="geometry" />
          </mxCell>
        </object>
        <object placeholders="1" c4Name="Scheduling db&#xa;" c4Type="Container" c4Technology="MySQL" c4Description="Store validation report.&#xa;" label="&lt;font style=&quot;font-size: 16px&quot;&gt;&lt;b&gt;%c4Name%&lt;/b&gt;&lt;/font&gt;&lt;div&gt;[%c4Type%:&amp;nbsp;%c4Technology%]&lt;/div&gt;&lt;br&gt;&lt;div&gt;&lt;font style=&quot;font-size: 11px&quot;&gt;&lt;font color=&quot;#E6E6E6&quot;&gt;%c4Description%&lt;/font&gt;&lt;/div&gt;" id="re8hhP1YmHWSONjR-MN5-1">
          <mxCell style="shape=cylinder3;size=15;whiteSpace=wrap;html=1;boundedLbl=1;rounded=0;labelBackgroundColor=none;fillColor=#23A2D9;fontSize=12;fontColor=#ffffff;align=center;strokeColor=#0E7DAD;metaEdit=1;points=[[0.5,0,0],[1,0.25,0],[1,0.5,0],[1,0.75,0],[0.5,1,0],[0,0.75,0],[0,0.5,0],[0,0.25,0]];resizable=0;" vertex="1" parent="1">
            <mxGeometry x="940" y="-1600" width="240" height="120" as="geometry" />
          </mxCell>
        </object>
        <mxCell id="A4tClLgePMG4KUA_VXG7-13" style="edgeStyle=orthogonalEdgeStyle;rounded=0;orthogonalLoop=1;jettySize=auto;html=1;dashed=1;dashPattern=8 8;" edge="1" parent="1" source="JTUO5PUyIDgBviyk_Dds-5" target="JTUO5PUyIDgBviyk_Dds-9">
          <mxGeometry relative="1" as="geometry" />
        </mxCell>
        <mxCell id="eZHE_ST1if3r3bzbPqHE-6" value="Shows changes on&lt;div style=&quot;font-size: 15px;&quot;&gt;student&#39;s dashboard&lt;/div&gt;" style="edgeLabel;html=1;align=center;verticalAlign=middle;resizable=0;points=[];fontSize=15;" vertex="1" connectable="0" parent="A4tClLgePMG4KUA_VXG7-13">
          <mxGeometry x="-0.3966" y="-2" relative="1" as="geometry">
            <mxPoint x="44" y="-2" as="offset" />
          </mxGeometry>
        </mxCell>
        <mxCell id="A4tClLgePMG4KUA_VXG7-26" style="edgeStyle=orthogonalEdgeStyle;rounded=0;orthogonalLoop=1;jettySize=auto;html=1;dashed=1;dashPattern=8 8;" edge="1" parent="1" source="JTUO5PUyIDgBviyk_Dds-5" target="LhGT1lA_JxfKN84wn2FE-2">
          <mxGeometry relative="1" as="geometry" />
        </mxCell>
        <mxCell id="eZHE_ST1if3r3bzbPqHE-5" value="Shows changes on&lt;div style=&quot;font-size: 15px;&quot;&gt;teacher&#39;s dashboard&lt;/div&gt;" style="edgeLabel;html=1;align=center;verticalAlign=middle;resizable=0;points=[];fontSize=15;" vertex="1" connectable="0" parent="A4tClLgePMG4KUA_VXG7-26">
          <mxGeometry x="0.0262" y="-5" relative="1" as="geometry">
            <mxPoint x="8" y="5" as="offset" />
          </mxGeometry>
        </mxCell>
        <mxCell id="A4tClLgePMG4KUA_VXG7-27" style="edgeStyle=orthogonalEdgeStyle;rounded=0;orthogonalLoop=1;jettySize=auto;html=1;dashed=1;dashPattern=8 8;exitX=0.25;exitY=1;exitDx=0;exitDy=0;exitPerimeter=0;" edge="1" parent="1" source="JTUO5PUyIDgBviyk_Dds-5" target="k1OwtV_KXARb9kCkeU_a-1">
          <mxGeometry relative="1" as="geometry">
            <mxPoint x="80" y="110" as="sourcePoint" />
            <mxPoint x="-619.9999999999998" y="-70" as="targetPoint" />
            <Array as="points">
              <mxPoint x="130" y="180" />
              <mxPoint x="-670" y="180" />
            </Array>
          </mxGeometry>
        </mxCell>
        <mxCell id="eZHE_ST1if3r3bzbPqHE-3" value="&lt;font style=&quot;font-size: 15px;&quot;&gt;Notifies teacher about changes in Schedules&lt;/font&gt;" style="edgeLabel;html=1;align=center;verticalAlign=middle;resizable=0;points=[];" vertex="1" connectable="0" parent="A4tClLgePMG4KUA_VXG7-27">
          <mxGeometry x="0.0199" y="-2" relative="1" as="geometry">
            <mxPoint x="141" y="2" as="offset" />
          </mxGeometry>
        </mxCell>
        <object placeholders="1" c4Name="Notifier&#xa;" c4Type="Container" c4Technology="e.g. SpringBoot, ElasticSearch, etc." c4Description="Notifies about changes and sends emails" label="&lt;font style=&quot;font-size: 16px&quot;&gt;&lt;b&gt;%c4Name%&lt;/b&gt;&lt;/font&gt;&lt;div&gt;[%c4Type%: %c4Technology%]&lt;/div&gt;&lt;br&gt;&lt;div&gt;&lt;font style=&quot;font-size: 11px&quot;&gt;&lt;font color=&quot;#E6E6E6&quot;&gt;%c4Description%&lt;/font&gt;&lt;/div&gt;" id="JTUO5PUyIDgBviyk_Dds-5">
          <mxCell style="rounded=1;whiteSpace=wrap;html=1;fontSize=11;labelBackgroundColor=none;fillColor=#23A2D9;fontColor=#ffffff;align=center;arcSize=10;strokeColor=#0E7DAD;metaEdit=1;resizable=0;points=[[0.25,0,0],[0.5,0,0],[0.75,0,0],[1,0.25,0],[1,0.5,0],[1,0.75,0],[0.75,1,0],[0.5,1,0],[0.25,1,0],[0,0.75,0],[0,0.5,0],[0,0.25,0]];" vertex="1" parent="1">
            <mxGeometry x="70" y="-10" width="240" height="120" as="geometry" />
          </mxCell>
        </object>
        <mxCell id="slRppW_lu8dPCojZmJvE-4" style="edgeStyle=orthogonalEdgeStyle;rounded=0;orthogonalLoop=1;jettySize=auto;html=1;entryX=1;entryY=0.5;entryDx=0;entryDy=0;entryPerimeter=0;dashed=1;dashPattern=8 8;exitX=0.19;exitY=-0.003;exitDx=0;exitDy=0;exitPerimeter=0;" edge="1" parent="1" source="JTUO5PUyIDgBviyk_Dds-9" target="eZHE_ST1if3r3bzbPqHE-11">
          <mxGeometry relative="1" as="geometry">
            <mxPoint x="790" y="-810" as="targetPoint" />
            <Array as="points">
              <mxPoint x="716" y="-570" />
            </Array>
          </mxGeometry>
        </mxCell>
        <mxCell id="slRppW_lu8dPCojZmJvE-7" value="&lt;span style=&quot;color: rgba(0, 0, 0, 0); font-family: monospace; font-size: 0px; text-align: start;&quot;&gt;Post data&lt;/span&gt;" style="edgeLabel;html=1;align=center;verticalAlign=middle;resizable=0;points=[];" vertex="1" connectable="0" parent="slRppW_lu8dPCojZmJvE-4">
          <mxGeometry x="-0.1066" y="1" relative="1" as="geometry">
            <mxPoint as="offset" />
          </mxGeometry>
        </mxCell>
        <mxCell id="slRppW_lu8dPCojZmJvE-8" value="&lt;font style=&quot;font-size: 15px;&quot;&gt;Post data&lt;/font&gt;" style="edgeLabel;html=1;align=center;verticalAlign=middle;resizable=0;points=[];" vertex="1" connectable="0" parent="slRppW_lu8dPCojZmJvE-4">
          <mxGeometry x="-0.0654" y="-2" relative="1" as="geometry">
            <mxPoint x="-2" y="-57" as="offset" />
          </mxGeometry>
        </mxCell>
        <object placeholders="1" c4Name="Student Dashboard&#xa;" c4Type="Container" c4Technology="Svelte" c4Description="Provides all functionality for the scheduling committe." label="&lt;font style=&quot;font-size: 16px&quot;&gt;&lt;b&gt;%c4Name%&lt;/b&gt;&lt;/font&gt;&lt;div&gt;[%c4Type%:&amp;nbsp;%c4Technology%]&lt;/div&gt;&lt;br&gt;&lt;div&gt;&lt;font style=&quot;font-size: 11px&quot;&gt;&lt;font color=&quot;#E6E6E6&quot;&gt;%c4Description%&lt;/font&gt;&lt;/div&gt;" id="JTUO5PUyIDgBviyk_Dds-9">
          <mxCell style="shape=mxgraph.c4.webBrowserContainer2;whiteSpace=wrap;html=1;boundedLbl=1;rounded=0;labelBackgroundColor=none;strokeColor=#118ACD;fillColor=#23A2D9;strokeColor=#118ACD;strokeColor2=#0E7DAD;fontSize=12;fontColor=#ffffff;align=center;metaEdit=1;points=[[0.5,0,0],[1,0.25,0],[1,0.5,0],[1,0.75,0],[0.5,1,0],[0,0.75,0],[0,0.5,0],[0,0.25,0]];resizable=0;rotation=0;" vertex="1" parent="1">
            <mxGeometry x="670" y="-30" width="240" height="160" as="geometry" />
          </mxCell>
        </object>
        <mxCell id="INO2cEVHdNO9NDZZdFHo-4" style="edgeStyle=orthogonalEdgeStyle;rounded=0;orthogonalLoop=1;jettySize=auto;html=1;dashed=1;dashPattern=8 8;exitX=0.5;exitY=1;exitDx=0;exitDy=0;exitPerimeter=0;entryX=0.5;entryY=1;entryDx=0;entryDy=0;entryPerimeter=0;" edge="1" parent="1" source="JTUO5PUyIDgBviyk_Dds-5" target="k1OwtV_KXARb9kCkeU_a-4">
          <mxGeometry relative="1" as="geometry">
            <Array as="points">
              <mxPoint x="190" y="180" />
              <mxPoint x="1380" y="180" />
            </Array>
            <mxPoint x="350" y="10" as="sourcePoint" />
            <mxPoint x="560" y="-440" as="targetPoint" />
          </mxGeometry>
        </mxCell>
        <mxCell id="eZHE_ST1if3r3bzbPqHE-7" value="Notifies student about&amp;nbsp;&lt;div&gt;changes in Schedules&lt;/div&gt;" style="edgeLabel;html=1;align=center;verticalAlign=middle;resizable=0;points=[];fontSize=15;" vertex="1" connectable="0" parent="INO2cEVHdNO9NDZZdFHo-4">
          <mxGeometry x="0.4876" y="-3" relative="1" as="geometry">
            <mxPoint x="-541" y="27" as="offset" />
          </mxGeometry>
        </mxCell>
        <mxCell id="INO2cEVHdNO9NDZZdFHo-6" style="edgeStyle=orthogonalEdgeStyle;rounded=0;orthogonalLoop=1;jettySize=auto;html=1;dashed=1;dashPattern=8 8;" edge="1" parent="1" source="JTUO5PUyIDgBviyk_Dds-5" target="1GP7aIgIm5lXNcPJ1ERs-3">
          <mxGeometry relative="1" as="geometry">
            <Array as="points">
              <mxPoint x="270" y="-130" />
              <mxPoint x="270" y="-130" />
            </Array>
          </mxGeometry>
        </mxCell>
        <mxCell id="5mQEDysZHeaTVgrjiSu2-1" value="Shows changes on SC&#39;s&lt;div&gt;dashboard&lt;/div&gt;" style="edgeLabel;html=1;align=center;verticalAlign=middle;resizable=0;points=[];fontSize=15;" connectable="0" vertex="1" parent="INO2cEVHdNO9NDZZdFHo-6">
          <mxGeometry x="0.0444" y="-1" relative="1" as="geometry">
            <mxPoint x="-1" y="3" as="offset" />
          </mxGeometry>
        </mxCell>
        <mxCell id="INO2cEVHdNO9NDZZdFHo-7" style="edgeStyle=orthogonalEdgeStyle;rounded=0;orthogonalLoop=1;jettySize=auto;html=1;dashed=1;dashPattern=8 8;entryX=0.5;entryY=1;entryDx=0;entryDy=0;entryPerimeter=0;" edge="1" parent="1" source="JTUO5PUyIDgBviyk_Dds-5" target="k1OwtV_KXARb9kCkeU_a-2">
          <mxGeometry relative="1" as="geometry">
            <Array as="points">
              <mxPoint x="-40" y="10" />
              <mxPoint x="-40" y="-280" />
              <mxPoint x="-640" y="-280" />
            </Array>
            <mxPoint x="15" y="-10" as="sourcePoint" />
            <mxPoint x="-15" y="-390" as="targetPoint" />
          </mxGeometry>
        </mxCell>
        <mxCell id="5mQEDysZHeaTVgrjiSu2-2" value="Notifies SC&amp;nbsp;&lt;div style=&quot;font-size: 15px;&quot;&gt;members of&amp;nbsp;&lt;div style=&quot;font-size: 15px;&quot;&gt;schedule conflicts&lt;/div&gt;&lt;/div&gt;" style="edgeLabel;html=1;align=center;verticalAlign=middle;resizable=0;points=[];fontSize=15;" connectable="0" vertex="1" parent="INO2cEVHdNO9NDZZdFHo-7">
          <mxGeometry x="0.2331" y="3" relative="1" as="geometry">
            <mxPoint x="-71" as="offset" />
          </mxGeometry>
        </mxCell>
        <mxCell id="geQIhWtCoS-PtnU6Akhw-6" style="edgeStyle=orthogonalEdgeStyle;rounded=0;orthogonalLoop=1;jettySize=auto;html=1;dashed=1;dashPattern=8 8;exitX=0;exitY=0.25;exitDx=0;exitDy=0;exitPerimeter=0;entryX=0.5;entryY=1;entryDx=0;entryDy=0;entryPerimeter=0;" edge="1" parent="1" source="JTUO5PUyIDgBviyk_Dds-6" target="1GP7aIgIm5lXNcPJ1ERs-1">
          <mxGeometry relative="1" as="geometry">
            <Array as="points">
              <mxPoint x="670" y="-1270" />
            </Array>
            <mxPoint x="620" y="-1400" as="targetPoint" />
          </mxGeometry>
        </mxCell>
        <mxCell id="G08Ro1oPAhs6SmKm2wl1-19" value="&lt;font style=&quot;font-size: 15px;&quot;&gt;Reads from and writes&lt;/font&gt;&lt;div style=&quot;font-size: 15px;&quot;&gt;&lt;font style=&quot;font-size: 15px;&quot;&gt;to&lt;/font&gt;&lt;/div&gt;" style="edgeLabel;html=1;align=center;verticalAlign=middle;resizable=0;points=[];" vertex="1" connectable="0" parent="geQIhWtCoS-PtnU6Akhw-6">
          <mxGeometry x="0.046" y="4" relative="1" as="geometry">
            <mxPoint y="-39" as="offset" />
          </mxGeometry>
        </mxCell>
        <mxCell id="geQIhWtCoS-PtnU6Akhw-7" style="edgeStyle=orthogonalEdgeStyle;rounded=0;orthogonalLoop=1;jettySize=auto;html=1;exitX=1;exitY=0.5;exitDx=0;exitDy=0;exitPerimeter=0;entryX=0.5;entryY=1;entryDx=0;entryDy=0;entryPerimeter=0;dashed=1;dashPattern=8 8;" edge="1" parent="1" source="JTUO5PUyIDgBviyk_Dds-6" target="re8hhP1YmHWSONjR-MN5-1">
          <mxGeometry relative="1" as="geometry">
            <Array as="points">
              <mxPoint x="1060" y="-1240" />
            </Array>
            <mxPoint x="1030" y="-1460" as="targetPoint" />
          </mxGeometry>
        </mxCell>
        <mxCell id="RYXe5IU4WyG_rEXD3zPt-1" value="&lt;font style=&quot;font-size: 15px;&quot;&gt;Reads from and writes&lt;/font&gt;&lt;div style=&quot;font-size: 15px;&quot;&gt;to&lt;/div&gt;" style="edgeLabel;html=1;align=center;verticalAlign=middle;resizable=0;points=[];" connectable="0" vertex="1" parent="geQIhWtCoS-PtnU6Akhw-7">
          <mxGeometry x="0.4196" y="1" relative="1" as="geometry">
            <mxPoint as="offset" />
          </mxGeometry>
        </mxCell>
        <object placeholders="1" c4Name="Data processor&#xa;" c4Type="Container" c4Technology="e.g. SpringBoot, ElasticSearch, etc." c4Description="Processes data" label="&lt;font style=&quot;font-size: 16px&quot;&gt;&lt;b&gt;%c4Name%&lt;/b&gt;&lt;/font&gt;&lt;div&gt;[%c4Type%: %c4Technology%]&lt;/div&gt;&lt;br&gt;&lt;div&gt;&lt;font style=&quot;font-size: 11px&quot;&gt;&lt;font color=&quot;#E6E6E6&quot;&gt;%c4Description%&lt;/font&gt;&lt;/div&gt;" id="JTUO5PUyIDgBviyk_Dds-6">
          <mxCell style="rounded=1;whiteSpace=wrap;html=1;fontSize=11;labelBackgroundColor=none;fillColor=#23A2D9;fontColor=#ffffff;align=center;arcSize=10;strokeColor=#0E7DAD;metaEdit=1;resizable=0;points=[[0.25,0,0],[0.5,0,0],[0.75,0,0],[1,0.25,0],[1,0.5,0],[1,0.75,0],[0.75,1,0],[0.5,1,0],[0.25,1,0],[0,0.75,0],[0,0.5,0],[0,0.25,0]];" vertex="1" parent="1">
            <mxGeometry x="730" y="-1300" width="240" height="120" as="geometry" />
          </mxCell>
        </object>
        <object placeholders="1" c4Name="Rule engine&#xa;&#xa;" c4Type="Container" c4Technology="e.g. SpringBoot, ElasticSearch, etc." c4Description="Generates schedules and validates changed schedules.&#xa;" label="&lt;font style=&quot;font-size: 16px&quot;&gt;&lt;b&gt;%c4Name%&lt;/b&gt;&lt;/font&gt;&lt;div&gt;[%c4Type%: %c4Technology%]&lt;/div&gt;&lt;br&gt;&lt;div&gt;&lt;font style=&quot;font-size: 11px&quot;&gt;&lt;font color=&quot;#E6E6E6&quot;&gt;%c4Description%&lt;/font&gt;&lt;/div&gt;" id="JTUO5PUyIDgBviyk_Dds-8">
          <mxCell style="rounded=1;whiteSpace=wrap;html=1;fontSize=11;labelBackgroundColor=none;fillColor=#23A2D9;fontColor=#ffffff;align=center;arcSize=10;strokeColor=#0E7DAD;metaEdit=1;resizable=0;points=[[0.25,0,0],[0.5,0,0],[0.75,0,0],[1,0.25,0],[1,0.5,0],[1,0.75,0],[0.75,1,0],[0.5,1,0],[0.25,1,0],[0,0.75,0],[0,0.5,0],[0,0.25,0]];" vertex="1" parent="1">
            <mxGeometry x="780" y="-920" width="240" height="120" as="geometry" />
          </mxCell>
        </object>
        <object placeholders="1" c4Name="Logger&#xa;" c4Type="Container" c4Technology="e.g. SpringBoot, ElasticSearch, etc." c4Description="Logs every change made and errors" label="&lt;font style=&quot;font-size: 16px&quot;&gt;&lt;b&gt;%c4Name%&lt;/b&gt;&lt;/font&gt;&lt;div&gt;[%c4Type%: %c4Technology%]&lt;/div&gt;&lt;br&gt;&lt;div&gt;&lt;font style=&quot;font-size: 11px&quot;&gt;&lt;font color=&quot;#E6E6E6&quot;&gt;%c4Description%&lt;/font&gt;&lt;/div&gt;" id="JTUO5PUyIDgBviyk_Dds-7">
          <mxCell style="rounded=1;whiteSpace=wrap;html=1;fontSize=11;labelBackgroundColor=none;fillColor=#23A2D9;fontColor=#ffffff;align=center;arcSize=10;strokeColor=#0E7DAD;metaEdit=1;resizable=0;points=[[0.25,0,0],[0.5,0,0],[0.75,0,0],[1,0.25,0],[1,0.5,0],[1,0.75,0],[0.75,1,0],[0.5,1,0],[0.25,1,0],[0,0.75,0],[0,0.5,0],[0,0.25,0]];" vertex="1" parent="1">
            <mxGeometry x="190" y="-1160" width="240" height="120" as="geometry" />
          </mxCell>
        </object>
        <object placeholders="1" c4Name="Data Receiver" c4Type="Container" c4Technology="e.g. SpringBoot, ElasticSearch, etc." c4Description="Receives data and sends them for further processing" label="&lt;font style=&quot;font-size: 16px&quot;&gt;&lt;b&gt;%c4Name%&lt;/b&gt;&lt;/font&gt;&lt;div&gt;[%c4Type%: %c4Technology%]&lt;/div&gt;&lt;br&gt;&lt;div&gt;&lt;font style=&quot;font-size: 11px&quot;&gt;&lt;font color=&quot;#E6E6E6&quot;&gt;%c4Description%&lt;/font&gt;&lt;/div&gt;" id="eZHE_ST1if3r3bzbPqHE-11">
          <mxCell style="rounded=1;whiteSpace=wrap;html=1;fontSize=11;labelBackgroundColor=none;fillColor=#23A2D9;fontColor=#ffffff;align=center;arcSize=10;strokeColor=#0E7DAD;metaEdit=1;resizable=0;points=[[0.25,0,0],[0.5,0,0],[0.75,0,0],[1,0.25,0],[1,0.5,0],[1,0.75,0],[0.75,1,0],[0.5,1,0],[0.25,1,0],[0,0.75,0],[0,0.5,0],[0,0.25,0]];verticalAlign=middle;fontFamily=Helvetica;" vertex="1" parent="1">
            <mxGeometry x="340" y="-630" width="240" height="120" as="geometry" />
          </mxCell>
        </object>
        <mxCell id="H5WK3kIalKdmoHghxHGN-1" style="edgeStyle=orthogonalEdgeStyle;rounded=0;orthogonalLoop=1;jettySize=auto;html=1;dashed=1;dashPattern=8 8;exitX=1;exitY=0.75;exitDx=0;exitDy=0;exitPerimeter=0;" edge="1" parent="1" source="eZHE_ST1if3r3bzbPqHE-12" target="JTUO5PUyIDgBviyk_Dds-8">
          <mxGeometry relative="1" as="geometry">
            <Array as="points">
              <mxPoint x="540" y="-820" />
            </Array>
          </mxGeometry>
        </mxCell>
        <mxCell id="geQIhWtCoS-PtnU6Akhw-2" value="&lt;font style=&quot;font-size: 15px;&quot;&gt;Requests a&amp;nbsp;&lt;/font&gt;&lt;span style=&quot;font-size: 15px;&quot;&gt;schedule&amp;nbsp;&lt;/span&gt;&lt;div style=&quot;font-size: 15px;&quot;&gt;&lt;font style=&quot;font-size: 15px;&quot;&gt;generation / validation&lt;/font&gt;&lt;/div&gt;" style="edgeLabel;html=1;align=center;verticalAlign=middle;resizable=0;points=[];" connectable="0" vertex="1" parent="H5WK3kIalKdmoHghxHGN-1">
          <mxGeometry x="-0.3803" relative="1" as="geometry">
            <mxPoint x="49" as="offset" />
          </mxGeometry>
        </mxCell>
        <object placeholders="1" c4Name="Scheduling service&#xa;" c4Type="Container" c4Technology="e.g. SpringBoot, ElasticSearch, etc." c4Description="Container responsible for requests in schedule changes" label="&lt;font style=&quot;font-size: 16px&quot;&gt;&lt;b&gt;%c4Name%&lt;/b&gt;&lt;/font&gt;&lt;div&gt;[%c4Type%: %c4Technology%]&lt;/div&gt;&lt;br&gt;&lt;div&gt;&lt;font style=&quot;font-size: 11px&quot;&gt;&lt;font color=&quot;#E6E6E6&quot;&gt;%c4Description%&lt;/font&gt;&lt;/div&gt;" id="eZHE_ST1if3r3bzbPqHE-12">
          <mxCell style="rounded=1;whiteSpace=wrap;html=1;fontSize=11;labelBackgroundColor=none;fillColor=#23A2D9;fontColor=#ffffff;align=center;arcSize=10;strokeColor=#0E7DAD;metaEdit=1;resizable=0;points=[[0.25,0,0],[0.5,0,0],[0.75,0,0],[1,0.25,0],[1,0.5,0],[1,0.75,0],[0.75,1,0],[0.5,1,0],[0.25,1,0],[0,0.75,0],[0,0.5,0],[0,0.25,0]];verticalAlign=middle;fontFamily=Helvetica;" vertex="1" parent="1">
            <mxGeometry x="300" y="-920" width="240" height="120" as="geometry" />
          </mxCell>
        </object>
        <mxCell id="slRppW_lu8dPCojZmJvE-1" style="edgeStyle=orthogonalEdgeStyle;rounded=0;orthogonalLoop=1;jettySize=auto;html=1;entryX=1;entryY=0.5;entryDx=0;entryDy=0;entryPerimeter=0;dashed=1;dashPattern=8 8;exitX=0;exitY=0.75;exitDx=0;exitDy=0;exitPerimeter=0;" edge="1" parent="1" source="k1OwtV_KXARb9kCkeU_a-4" target="JTUO5PUyIDgBviyk_Dds-9">
          <mxGeometry relative="1" as="geometry">
            <Array as="points">
              <mxPoint x="1290" y="50" />
            </Array>
          </mxGeometry>
        </mxCell>
        <mxCell id="slRppW_lu8dPCojZmJvE-2" value="&lt;font style=&quot;font-size: 15px;&quot;&gt;Interacts and views Schedules in&lt;/font&gt;&lt;div&gt;&lt;font style=&quot;font-size: 15px;&quot;&gt;UI interface&lt;/font&gt;&lt;/div&gt;" style="edgeLabel;html=1;align=center;verticalAlign=middle;resizable=0;points=[];" vertex="1" connectable="0" parent="slRppW_lu8dPCojZmJvE-1">
          <mxGeometry x="0.4406" relative="1" as="geometry">
            <mxPoint x="99" as="offset" />
          </mxGeometry>
        </mxCell>
        <mxCell id="slRppW_lu8dPCojZmJvE-5" value="&lt;font style=&quot;font-size: 15px;&quot;&gt;Post data&lt;/font&gt;" style="edgeLabel;html=1;align=center;verticalAlign=middle;resizable=0;points=[];" connectable="0" vertex="1" parent="1">
          <mxGeometry x="-200" y="-170.00235294117635" as="geometry" />
        </mxCell>
        <mxCell id="slRppW_lu8dPCojZmJvE-11" style="edgeStyle=orthogonalEdgeStyle;rounded=0;orthogonalLoop=1;jettySize=auto;html=1;dashed=1;dashPattern=8 8;" edge="1" parent="1" source="eZHE_ST1if3r3bzbPqHE-11" target="eZHE_ST1if3r3bzbPqHE-12">
          <mxGeometry relative="1" as="geometry">
            <Array as="points">
              <mxPoint x="420" y="-670" />
              <mxPoint x="420" y="-670" />
            </Array>
          </mxGeometry>
        </mxCell>
        <mxCell id="slRppW_lu8dPCojZmJvE-12" value="&lt;font style=&quot;font-size: 15px;&quot;&gt;Sends requests that were received&lt;/font&gt;" style="edgeLabel;html=1;align=center;verticalAlign=middle;resizable=0;points=[];" connectable="0" vertex="1" parent="slRppW_lu8dPCojZmJvE-11">
          <mxGeometry x="-0.1794" y="1" relative="1" as="geometry">
            <mxPoint x="1" y="30" as="offset" />
          </mxGeometry>
        </mxCell>
        <mxCell id="G08Ro1oPAhs6SmKm2wl1-1" style="edgeStyle=orthogonalEdgeStyle;rounded=0;orthogonalLoop=1;jettySize=auto;html=1;dashed=1;dashPattern=8 8;" edge="1" parent="1" source="JTUO5PUyIDgBviyk_Dds-8" target="eZHE_ST1if3r3bzbPqHE-12">
          <mxGeometry relative="1" as="geometry">
            <Array as="points">
              <mxPoint x="660" y="-890" />
              <mxPoint x="660" y="-890" />
            </Array>
          </mxGeometry>
        </mxCell>
        <mxCell id="geQIhWtCoS-PtnU6Akhw-4" value="&lt;font style=&quot;font-size: 15px;&quot;&gt;Sends schedule generation&amp;nbsp;&lt;/font&gt;&lt;div&gt;&lt;font style=&quot;font-size: 15px;&quot;&gt;/ validation&amp;nbsp;&lt;/font&gt;&lt;span style=&quot;font-size: 15px;&quot;&gt;result&lt;/span&gt;&lt;/div&gt;" style="edgeLabel;html=1;align=center;verticalAlign=middle;resizable=0;points=[];" connectable="0" vertex="1" parent="G08Ro1oPAhs6SmKm2wl1-1">
          <mxGeometry x="-0.1703" y="-1" relative="1" as="geometry">
            <mxPoint x="-10" as="offset" />
          </mxGeometry>
        </mxCell>
        <mxCell id="G08Ro1oPAhs6SmKm2wl1-4" style="edgeStyle=orthogonalEdgeStyle;rounded=0;orthogonalLoop=1;jettySize=auto;html=1;entryX=0.5;entryY=0;entryDx=0;entryDy=0;entryPerimeter=0;exitX=0;exitY=0.25;exitDx=0;exitDy=0;exitPerimeter=0;dashed=1;dashPattern=8 8;" edge="1" parent="1" source="eZHE_ST1if3r3bzbPqHE-12" target="LhGT1lA_JxfKN84wn2FE-2">
          <mxGeometry relative="1" as="geometry" />
        </mxCell>
        <mxCell id="G08Ro1oPAhs6SmKm2wl1-11" value="&lt;font style=&quot;font-size: 15px;&quot;&gt;Sends updated information&lt;/font&gt;&lt;div style=&quot;font-size: 15px;&quot;&gt;&lt;font style=&quot;font-size: 15px;&quot;&gt;to the dashboard&lt;/font&gt;&lt;/div&gt;" style="edgeLabel;html=1;align=center;verticalAlign=middle;resizable=0;points=[];" vertex="1" connectable="0" parent="G08Ro1oPAhs6SmKm2wl1-4">
          <mxGeometry x="0.0577" y="-4" relative="1" as="geometry">
            <mxPoint as="offset" />
          </mxGeometry>
        </mxCell>
        <mxCell id="G08Ro1oPAhs6SmKm2wl1-5" style="edgeStyle=orthogonalEdgeStyle;rounded=0;orthogonalLoop=1;jettySize=auto;html=1;exitX=0;exitY=0.5;exitDx=0;exitDy=0;exitPerimeter=0;dashed=1;dashPattern=8 8;" edge="1" parent="1" source="eZHE_ST1if3r3bzbPqHE-12" target="1GP7aIgIm5lXNcPJ1ERs-3">
          <mxGeometry relative="1" as="geometry">
            <Array as="points">
              <mxPoint x="270" y="-860" />
            </Array>
          </mxGeometry>
        </mxCell>
        <mxCell id="G08Ro1oPAhs6SmKm2wl1-8" value="&lt;span style=&quot;color: rgba(0, 0, 0, 0); font-family: monospace; font-size: 0px; text-align: start;&quot;&gt;%3CmxGraphModel%3E%3Croot%3E%3CmxCell%20id%3D%220%22%2F%3E%3CmxCell%20id%3D%221%22%20parent%3D%220%22%2F%3E%3CmxCell%20id%3D%222%22%20value%3D%22%26lt%3Bfont%20style%3D%26quot%3Bfont-size%3A%2015px%3B%26quot%3B%26gt%3BSends%20updated%20information%26lt%3B%2Ffont%26gt%3B%26lt%3Bdiv%20style%3D%26quot%3Bfont-size%3A%2015px%3B%26quot%3B%26gt%3B%26lt%3Bfont%20style%3D%26quot%3Bfont-size%3A%2015px%3B%26quot%3B%26gt%3Bto%20the%20dashboard%26lt%3B%2Ffont%26gt%3B%26lt%3B%2Fdiv%26gt%3B%22%20style%3D%22edgeLabel%3Bhtml%3D1%3Balign%3Dcenter%3BverticalAlign%3Dmiddle%3Bresizable%3D0%3Bpoints%3D%5B%5D%3B%22%20vertex%3D%221%22%20connectable%3D%220%22%20parent%3D%221%22%3E%3CmxGeometry%20x%3D%22694.2857142857147%22%20y%3D%22-707.9999999999995%22%20as%3D%22geometry%22%2F%3E%3C%2FmxCell%3E%3C%2Froot%3E%3C%2FmxGraphModel%3E&lt;/span&gt;" style="edgeLabel;html=1;align=center;verticalAlign=middle;resizable=0;points=[];" vertex="1" connectable="0" parent="G08Ro1oPAhs6SmKm2wl1-5">
          <mxGeometry x="-0.0862" relative="1" as="geometry">
            <mxPoint as="offset" />
          </mxGeometry>
        </mxCell>
        <mxCell id="G08Ro1oPAhs6SmKm2wl1-9" value="&lt;span style=&quot;color: rgba(0, 0, 0, 0); font-family: monospace; font-size: 0px; text-align: start;&quot;&gt;%3CmxGraphModel%3E%3Croot%3E%3CmxCell%20id%3D%220%22%2F%3E%3CmxCell%20id%3D%221%22%20parent%3D%220%22%2F%3E%3CmxCell%20id%3D%222%22%20value%3D%22%26lt%3Bfont%20style%3D%26quot%3Bfont-size%3A%2015px%3B%26quot%3B%26gt%3BSends%20updated%20information%26lt%3B%2Ffont%26gt%3B%26lt%3Bdiv%20style%3D%26quot%3Bfont-size%3A%2015px%3B%26quot%3B%26gt%3B%26lt%3Bfont%20style%3D%26quot%3Bfont-size%3A%2015px%3B%26quot%3B%26gt%3Bto%20the%20dashboard%26lt%3B%2Ffont%26gt%3B%26lt%3B%2Fdiv%26gt%3B%22%20style%3D%22edgeLabel%3Bhtml%3D1%3Balign%3Dcenter%3BverticalAlign%3Dmiddle%3Bresizable%3D0%3Bpoints%3D%5B%5D%3B%22%20vertex%3D%221%22%20connectable%3D%220%22%20parent%3D%221%22%3E%3CmxGeometry%20x%3D%22694.2857142857147%22%20y%3D%22-707.9999999999995%22%20as%3D%22geometry%22%2F%3E%3C%2FmxCell%3E%3C%2Froot%3E%3C%2FmxGraphModel%3ES&lt;/span&gt;" style="edgeLabel;html=1;align=center;verticalAlign=middle;resizable=0;points=[];" vertex="1" connectable="0" parent="G08Ro1oPAhs6SmKm2wl1-5">
          <mxGeometry x="-0.3183" y="4" relative="1" as="geometry">
            <mxPoint as="offset" />
          </mxGeometry>
        </mxCell>
        <mxCell id="G08Ro1oPAhs6SmKm2wl1-10" value="&lt;font style=&quot;font-size: 15px;&quot;&gt;Sends updated information&lt;/font&gt;&lt;div style=&quot;font-size: 15px;&quot;&gt;&lt;font style=&quot;font-size: 15px;&quot;&gt;to the dashboard&lt;/font&gt;&lt;/div&gt;" style="edgeLabel;html=1;align=center;verticalAlign=middle;resizable=0;points=[];" vertex="1" connectable="0" parent="G08Ro1oPAhs6SmKm2wl1-5">
          <mxGeometry x="-0.1665" relative="1" as="geometry">
            <mxPoint x="10" y="-114" as="offset" />
          </mxGeometry>
        </mxCell>
        <mxCell id="G08Ro1oPAhs6SmKm2wl1-6" style="edgeStyle=orthogonalEdgeStyle;rounded=0;orthogonalLoop=1;jettySize=auto;html=1;entryX=0.833;entryY=0.015;entryDx=0;entryDy=0;entryPerimeter=0;dashed=1;dashPattern=8 8;" edge="1" parent="1" source="eZHE_ST1if3r3bzbPqHE-12" target="JTUO5PUyIDgBviyk_Dds-9">
          <mxGeometry relative="1" as="geometry">
            <Array as="points">
              <mxPoint x="500" y="-720" />
              <mxPoint x="870" y="-720" />
            </Array>
          </mxGeometry>
        </mxCell>
        <mxCell id="G08Ro1oPAhs6SmKm2wl1-7" value="&lt;font style=&quot;font-size: 15px;&quot;&gt;Sends updated information&lt;/font&gt;&lt;div style=&quot;font-size: 15px;&quot;&gt;&lt;font style=&quot;font-size: 15px;&quot;&gt;to the dashboard&lt;/font&gt;&lt;/div&gt;" style="edgeLabel;html=1;align=center;verticalAlign=middle;resizable=0;points=[];" vertex="1" connectable="0" parent="G08Ro1oPAhs6SmKm2wl1-6">
          <mxGeometry x="-0.4766" y="-2" relative="1" as="geometry">
            <mxPoint as="offset" />
          </mxGeometry>
        </mxCell>
        <mxCell id="G08Ro1oPAhs6SmKm2wl1-12" style="edgeStyle=orthogonalEdgeStyle;rounded=0;orthogonalLoop=1;jettySize=auto;html=1;exitX=0.25;exitY=0;exitDx=0;exitDy=0;exitPerimeter=0;entryX=0.5;entryY=1;entryDx=0;entryDy=0;entryPerimeter=0;dashed=1;dashPattern=8 8;" edge="1" parent="1" source="JTUO5PUyIDgBviyk_Dds-8" target="JTUO5PUyIDgBviyk_Dds-7">
          <mxGeometry relative="1" as="geometry" />
        </mxCell>
        <mxCell id="G08Ro1oPAhs6SmKm2wl1-20" value="&lt;font style=&quot;font-size: 15px;&quot;&gt;Logs changes made by algorithm&lt;/font&gt;" style="edgeLabel;html=1;align=center;verticalAlign=middle;resizable=0;points=[];" vertex="1" connectable="0" parent="G08Ro1oPAhs6SmKm2wl1-12">
          <mxGeometry x="0.1785" relative="1" as="geometry">
            <mxPoint as="offset" />
          </mxGeometry>
        </mxCell>
        <mxCell id="G08Ro1oPAhs6SmKm2wl1-13" style="edgeStyle=orthogonalEdgeStyle;rounded=0;orthogonalLoop=1;jettySize=auto;html=1;dashed=1;dashPattern=8 8;" edge="1" parent="1" source="JTUO5PUyIDgBviyk_Dds-8" target="JTUO5PUyIDgBviyk_Dds-6">
          <mxGeometry relative="1" as="geometry">
            <Array as="points">
              <mxPoint x="900" y="-1070" />
              <mxPoint x="900" y="-1070" />
            </Array>
          </mxGeometry>
        </mxCell>
        <mxCell id="G08Ro1oPAhs6SmKm2wl1-21" value="&lt;font style=&quot;font-size: 15px;&quot;&gt;Sends algorithm results&lt;/font&gt;" style="edgeLabel;html=1;align=center;verticalAlign=middle;resizable=0;points=[];" vertex="1" connectable="0" parent="G08Ro1oPAhs6SmKm2wl1-13">
          <mxGeometry x="0.0473" y="-3" relative="1" as="geometry">
            <mxPoint as="offset" />
          </mxGeometry>
        </mxCell>
        <mxCell id="G08Ro1oPAhs6SmKm2wl1-14" style="edgeStyle=orthogonalEdgeStyle;rounded=0;orthogonalLoop=1;jettySize=auto;html=1;exitX=0.25;exitY=0;exitDx=0;exitDy=0;exitPerimeter=0;dashed=1;dashPattern=8 8;entryX=0.223;entryY=0.996;entryDx=0;entryDy=0;entryPerimeter=0;" edge="1" parent="1" source="JTUO5PUyIDgBviyk_Dds-7" target="bhLmAvv2JXkIKtS_Un4S-2">
          <mxGeometry relative="1" as="geometry">
            <Array as="points">
              <mxPoint x="254" y="-1160" />
              <mxPoint x="254" y="-1691" />
            </Array>
            <mxPoint x="59.94999999999999" y="-1180.05" as="sourcePoint" />
            <mxPoint x="59.63000000000028" y="-1713.29" as="targetPoint" />
          </mxGeometry>
        </mxCell>
        <mxCell id="G08Ro1oPAhs6SmKm2wl1-16" value="Logs changes that&lt;div style=&quot;font-size: 15px;&quot;&gt;were made by&lt;/div&gt;&lt;div style=&quot;font-size: 15px;&quot;&gt;Rule Engine&lt;/div&gt;" style="edgeLabel;html=1;align=center;verticalAlign=middle;resizable=0;points=[];fontSize=15;" vertex="1" connectable="0" parent="G08Ro1oPAhs6SmKm2wl1-14">
          <mxGeometry x="0.2246" relative="1" as="geometry">
            <mxPoint as="offset" />
          </mxGeometry>
        </mxCell>
        <mxCell id="G08Ro1oPAhs6SmKm2wl1-15" style="edgeStyle=orthogonalEdgeStyle;rounded=0;orthogonalLoop=1;jettySize=auto;html=1;exitX=0;exitY=0.5;exitDx=0;exitDy=0;exitPerimeter=0;dashed=1;dashPattern=8 8;entryX=0.751;entryY=0.957;entryDx=0;entryDy=0;entryPerimeter=0;" edge="1" parent="1" source="JTUO5PUyIDgBviyk_Dds-6" target="bhLmAvv2JXkIKtS_Un4S-2">
          <mxGeometry relative="1" as="geometry">
            <Array as="points">
              <mxPoint x="380" y="-1240" />
            </Array>
            <mxPoint x="797.4300000000001" y="-1182.4" as="sourcePoint" />
            <mxPoint x="450.07000000000033" y="-1660" as="targetPoint" />
          </mxGeometry>
        </mxCell>
        <mxCell id="G08Ro1oPAhs6SmKm2wl1-18" value="Reads data" style="edgeLabel;html=1;align=center;verticalAlign=middle;resizable=0;points=[];fontSize=15;" vertex="1" connectable="0" parent="G08Ro1oPAhs6SmKm2wl1-15">
          <mxGeometry x="-0.1754" relative="1" as="geometry">
            <mxPoint x="135" y="2" as="offset" />
          </mxGeometry>
        </mxCell>
        <mxCell id="G08Ro1oPAhs6SmKm2wl1-23" style="edgeStyle=orthogonalEdgeStyle;rounded=0;orthogonalLoop=1;jettySize=auto;html=1;entryX=0.25;entryY=0;entryDx=0;entryDy=0;entryPerimeter=0;dashed=1;dashPattern=8 8;" edge="1" parent="1" source="JTUO5PUyIDgBviyk_Dds-7" target="JTUO5PUyIDgBviyk_Dds-5">
          <mxGeometry relative="1" as="geometry">
            <Array as="points">
              <mxPoint x="130" y="-1100" />
            </Array>
          </mxGeometry>
        </mxCell>
        <mxCell id="G08Ro1oPAhs6SmKm2wl1-24" value="&lt;font style=&quot;font-size: 15px;&quot;&gt;Sends changes made to&lt;/font&gt;&lt;div style=&quot;font-size: 15px;&quot;&gt;&lt;font style=&quot;font-size: 15px;&quot;&gt;notifier fo rfurther processing&lt;/font&gt;&lt;/div&gt;" style="edgeLabel;html=1;align=center;verticalAlign=middle;resizable=0;points=[];" vertex="1" connectable="0" parent="G08Ro1oPAhs6SmKm2wl1-23">
          <mxGeometry x="-0.705" y="3" relative="1" as="geometry">
            <mxPoint as="offset" />
          </mxGeometry>
        </mxCell>
      </root>
    </mxGraphModel>
  </diagram>
  <diagram id="ppiC5a7q2QuJHYBJ6qc2" name="[Container - L3] Rule Engine ">
    <mxGraphModel grid="1" page="0" gridSize="10" guides="1" tooltips="1" connect="1" arrows="1" fold="1" pageScale="1" pageWidth="827" pageHeight="1169" math="0" shadow="0">
      <root>
        <mxCell id="0" />
        <mxCell id="1" parent="0" />
        <object placeholders="1" c4Name="Rule Engine&#xa;" c4Type="ContainerScopeBoundary" c4Application="Container" label="&lt;font style=&quot;font-size: 16px&quot;&gt;&lt;b&gt;&lt;div style=&quot;text-align: left&quot;&gt;%c4Name%&lt;/div&gt;&lt;/b&gt;&lt;/font&gt;&lt;div style=&quot;text-align: left&quot;&gt;[%c4Application%]&lt;/div&gt;" id="HNCgCYigWqQUxbn3KcJ3-1">
          <mxCell style="rounded=1;fontSize=11;whiteSpace=wrap;html=1;dashed=1;arcSize=20;fillColor=none;strokeColor=#666666;fontColor=#333333;labelBackgroundColor=none;align=left;verticalAlign=bottom;labelBorderColor=none;spacingTop=0;spacing=10;dashPattern=8 4;metaEdit=1;rotatable=0;perimeter=rectanglePerimeter;noLabel=0;labelPadding=0;allowArrows=0;connectable=0;expand=0;recursiveResize=0;editable=1;pointerEvents=0;absoluteArcSize=1;points=[[0.25,0,0],[0.5,0,0],[0.75,0,0],[1,0.25,0],[1,0.5,0],[1,0.75,0],[0.75,1,0],[0.5,1,0],[0.25,1,0],[0,0.75,0],[0,0.5,0],[0,0.25,0]];" vertex="1" parent="1">
            <mxGeometry x="-560" y="-400" width="760" height="860" as="geometry" />
          </mxCell>
        </object>
        <object placeholders="1" c4Name="Data processor&#xa;" c4Type="Container" c4Technology="e.g. SpringBoot, ElasticSearch, etc." c4Description="Processes data" label="&lt;font style=&quot;font-size: 16px&quot;&gt;&lt;b&gt;%c4Name%&lt;/b&gt;&lt;/font&gt;&lt;div&gt;[%c4Type%: %c4Technology%]&lt;/div&gt;&lt;br&gt;&lt;div&gt;&lt;font style=&quot;font-size: 11px&quot;&gt;&lt;font color=&quot;#E6E6E6&quot;&gt;%c4Description%&lt;/font&gt;&lt;/div&gt;" id="j1F6gH7u2w4V8ReqVOUI-1">
          <mxCell style="rounded=1;whiteSpace=wrap;html=1;fontSize=11;labelBackgroundColor=none;fillColor=#23A2D9;fontColor=#ffffff;align=center;arcSize=10;strokeColor=#0E7DAD;metaEdit=1;resizable=0;points=[[0.25,0,0],[0.5,0,0],[0.75,0,0],[1,0.25,0],[1,0.5,0],[1,0.75,0],[0.75,1,0],[0.5,1,0],[0.25,1,0],[0,0.75,0],[0,0.5,0],[0,0.25,0]];" vertex="1" parent="1">
            <mxGeometry x="260" y="-240" width="240" height="120" as="geometry" />
          </mxCell>
        </object>
        <mxCell id="r1OYYBKXIhwqY2fLcspm-2" style="edgeStyle=orthogonalEdgeStyle;rounded=0;orthogonalLoop=1;jettySize=auto;html=1;dashed=1;dashPattern=8 8;entryX=0;entryY=0.5;entryDx=0;entryDy=0;entryPerimeter=0;exitX=1;exitY=0.5;exitDx=0;exitDy=0;exitPerimeter=0;" edge="1" parent="1" source="pc7LUL7Yv0GbvkcvB1H2-1" target="r1OYYBKXIhwqY2fLcspm-1">
          <mxGeometry relative="1" as="geometry" />
        </mxCell>
        <mxCell id="ci-kfMzy5Hb5fcgAL533-1" value="&lt;font style=&quot;font-size: 15px;&quot;&gt;Requests a&amp;nbsp;&lt;/font&gt;&lt;span style=&quot;font-size: 15px;&quot;&gt;schedule&amp;nbsp;&lt;/span&gt;&lt;div style=&quot;font-size: 15px;&quot;&gt;generation / validation&lt;/div&gt;" style="edgeLabel;html=1;align=center;verticalAlign=middle;resizable=0;points=[];" connectable="0" vertex="1" parent="r1OYYBKXIhwqY2fLcspm-2">
          <mxGeometry x="-0.2171" y="3" relative="1" as="geometry">
            <mxPoint x="31" y="3" as="offset" />
          </mxGeometry>
        </mxCell>
        <object placeholders="1" c4Name="Scheduling service&#xa;" c4Type="Container" c4Technology="e.g. SpringBoot, ElasticSearch, etc." c4Description="Container responsible for requests in schedule changes" label="&lt;font style=&quot;font-size: 16px&quot;&gt;&lt;b&gt;%c4Name%&lt;/b&gt;&lt;/font&gt;&lt;div&gt;[%c4Type%: %c4Technology%]&lt;/div&gt;&lt;br&gt;&lt;div&gt;&lt;font style=&quot;font-size: 11px&quot;&gt;&lt;font color=&quot;#E6E6E6&quot;&gt;%c4Description%&lt;/font&gt;&lt;/div&gt;" id="pc7LUL7Yv0GbvkcvB1H2-1">
          <mxCell style="rounded=1;whiteSpace=wrap;html=1;fontSize=11;labelBackgroundColor=none;fillColor=#23A2D9;fontColor=#ffffff;align=center;arcSize=10;strokeColor=#0E7DAD;metaEdit=1;resizable=0;points=[[0.25,0,0],[0.5,0,0],[0.75,0,0],[1,0.25,0],[1,0.5,0],[1,0.75,0],[0.75,1,0],[0.5,1,0],[0.25,1,0],[0,0.75,0],[0,0.5,0],[0,0.25,0]];verticalAlign=middle;fontFamily=Helvetica;" vertex="1" parent="1">
            <mxGeometry x="-970" y="-360" width="240" height="120" as="geometry" />
          </mxCell>
        </object>
        <object placeholders="1" c4Name="Logger&#xa;" c4Type="Container" c4Technology="e.g. SpringBoot, ElasticSearch, etc." c4Description="Logs every change made and errors" label="&lt;font style=&quot;font-size: 16px&quot;&gt;&lt;b&gt;%c4Name%&lt;/b&gt;&lt;/font&gt;&lt;div&gt;[%c4Type%: %c4Technology%]&lt;/div&gt;&lt;br&gt;&lt;div&gt;&lt;font style=&quot;font-size: 11px&quot;&gt;&lt;font color=&quot;#E6E6E6&quot;&gt;%c4Description%&lt;/font&gt;&lt;/div&gt;" id="ZqEer7TvvcvFRKGN5MlV-1">
          <mxCell style="rounded=1;whiteSpace=wrap;html=1;fontSize=11;labelBackgroundColor=none;fillColor=#23A2D9;fontColor=#ffffff;align=center;arcSize=10;strokeColor=#0E7DAD;metaEdit=1;resizable=0;points=[[0.25,0,0],[0.5,0,0],[0.75,0,0],[1,0.25,0],[1,0.5,0],[1,0.75,0],[0.75,1,0],[0.5,1,0],[0.25,1,0],[0,0.75,0],[0,0.5,0],[0,0.25,0]];" vertex="1" parent="1">
            <mxGeometry x="-970" y="-110" width="240" height="120" as="geometry" />
          </mxCell>
        </object>
        <mxCell id="r1OYYBKXIhwqY2fLcspm-7" style="edgeStyle=orthogonalEdgeStyle;rounded=0;orthogonalLoop=1;jettySize=auto;html=1;exitX=1;exitY=0.75;exitDx=0;exitDy=0;exitPerimeter=0;entryX=0;entryY=0.5;entryDx=0;entryDy=0;entryPerimeter=0;dashed=1;dashPattern=8 8;" edge="1" parent="1" source="J0IimUWWDeCO6wJw7x9u-1" target="J0IimUWWDeCO6wJw7x9u-2">
          <mxGeometry relative="1" as="geometry">
            <Array as="points">
              <mxPoint x="-230" y="-20" />
              <mxPoint x="-230" y="110" />
            </Array>
          </mxGeometry>
        </mxCell>
        <mxCell id="ci-kfMzy5Hb5fcgAL533-3" value="&lt;font style=&quot;font-size: 15px;&quot;&gt;Retrieves constraints&lt;/font&gt;" style="edgeLabel;html=1;align=center;verticalAlign=middle;resizable=0;points=[];" connectable="0" vertex="1" parent="r1OYYBKXIhwqY2fLcspm-7">
          <mxGeometry x="-0.5871" y="-1" relative="1" as="geometry">
            <mxPoint y="64" as="offset" />
          </mxGeometry>
        </mxCell>
        <mxCell id="r1OYYBKXIhwqY2fLcspm-9" style="edgeStyle=orthogonalEdgeStyle;rounded=0;orthogonalLoop=1;jettySize=auto;html=1;dashed=1;dashPattern=8 8;entryX=0.5;entryY=0;entryDx=0;entryDy=0;entryPerimeter=0;exitX=0.5;exitY=1;exitDx=0;exitDy=0;exitPerimeter=0;" edge="1" parent="1" source="J0IimUWWDeCO6wJw7x9u-1" target="J0IimUWWDeCO6wJw7x9u-3">
          <mxGeometry relative="1" as="geometry">
            <Array as="points" />
          </mxGeometry>
        </mxCell>
        <mxCell id="UUillZt8TukIQ8RCky7U-4" value="&lt;font style=&quot;font-size: 15px;&quot;&gt;Sends conflicts for resolution.&lt;/font&gt;" style="edgeLabel;html=1;align=center;verticalAlign=middle;resizable=0;points=[];" connectable="0" vertex="1" parent="r1OYYBKXIhwqY2fLcspm-9">
          <mxGeometry x="0.0655" y="1" relative="1" as="geometry">
            <mxPoint x="-1" y="31" as="offset" />
          </mxGeometry>
        </mxCell>
        <mxCell id="g2fERPV_gtp1KIbrBito-3" style="edgeStyle=orthogonalEdgeStyle;rounded=0;orthogonalLoop=1;jettySize=auto;html=1;dashed=1;dashPattern=8 8;exitX=0;exitY=0.5;exitDx=0;exitDy=0;exitPerimeter=0;entryX=1;entryY=0.5;entryDx=0;entryDy=0;entryPerimeter=0;" edge="1" parent="1" source="J0IimUWWDeCO6wJw7x9u-1" target="ZqEer7TvvcvFRKGN5MlV-1">
          <mxGeometry relative="1" as="geometry">
            <Array as="points">
              <mxPoint x="-670" y="-50" />
              <mxPoint x="-670" y="-50" />
            </Array>
          </mxGeometry>
        </mxCell>
        <mxCell id="UUillZt8TukIQ8RCky7U-5" value="&lt;font style=&quot;font-size: 15px;&quot;&gt;Logs validation results&lt;/font&gt;&lt;div&gt;&lt;span style=&quot;font-size: 15px;&quot;&gt;and&amp;nbsp;&lt;/span&gt;&lt;span style=&quot;font-size: 15px;&quot;&gt;issues.&lt;/span&gt;&lt;/div&gt;" style="edgeLabel;html=1;align=center;verticalAlign=middle;resizable=0;points=[];" connectable="0" vertex="1" parent="g2fERPV_gtp1KIbrBito-3">
          <mxGeometry x="-0.0254" y="3" relative="1" as="geometry">
            <mxPoint x="-3" y="-3" as="offset" />
          </mxGeometry>
        </mxCell>
        <mxCell id="Twv58QPuS34CHjaFf4kF-2" style="edgeStyle=orthogonalEdgeStyle;rounded=0;orthogonalLoop=1;jettySize=auto;html=1;entryX=0.25;entryY=1;entryDx=0;entryDy=0;entryPerimeter=0;exitX=1;exitY=0.5;exitDx=0;exitDy=0;exitPerimeter=0;dashed=1;dashPattern=8 8;" edge="1" parent="1" source="J0IimUWWDeCO6wJw7x9u-1" target="j1F6gH7u2w4V8ReqVOUI-1">
          <mxGeometry relative="1" as="geometry">
            <Array as="points">
              <mxPoint x="320" y="-50" />
            </Array>
          </mxGeometry>
        </mxCell>
        <mxCell id="wcCtwfBnRjrHpazM-P9H-2" value="&lt;span style=&quot;font-size: 15px;&quot;&gt;Sends algorithm results&lt;/span&gt;" style="edgeLabel;html=1;align=center;verticalAlign=middle;resizable=0;points=[];" connectable="0" vertex="1" parent="Twv58QPuS34CHjaFf4kF-2">
          <mxGeometry x="0.1244" relative="1" as="geometry">
            <mxPoint x="99" as="offset" />
          </mxGeometry>
        </mxCell>
        <object placeholders="1" c4Name="Validator" c4Type="Component" c4Technology="e.g. Spring Service" c4Description="Checks schedules for rule compliance.&#xa;" label="&lt;font style=&quot;font-size: 16px&quot;&gt;&lt;b&gt;%c4Name%&lt;/b&gt;&lt;/font&gt;&lt;div&gt;[%c4Type%: %c4Technology%]&lt;/div&gt;&lt;br&gt;&lt;div&gt;&lt;font style=&quot;font-size: 11px&quot;&gt;%c4Description%&lt;/font&gt;&lt;/div&gt;" id="J0IimUWWDeCO6wJw7x9u-1">
          <mxCell style="rounded=1;whiteSpace=wrap;html=1;labelBackgroundColor=none;fillColor=#63BEF2;fontColor=#ffffff;align=center;arcSize=6;strokeColor=#2086C9;metaEdit=1;resizable=0;points=[[0.25,0,0],[0.5,0,0],[0.75,0,0],[1,0.25,0],[1,0.5,0],[1,0.75,0],[0.75,1,0],[0.5,1,0],[0.25,1,0],[0,0.75,0],[0,0.5,0],[0,0.25,0]];" vertex="1" parent="1">
            <mxGeometry x="-510" y="-110" width="240" height="120" as="geometry" />
          </mxCell>
        </object>
        <object placeholders="1" c4Name="Constraint Manager&#xa;" c4Type="Component" c4Technology="e.g. Spring Service" c4Description="Manages scheduling constraints and preferences.&#xa;" label="&lt;font style=&quot;font-size: 16px&quot;&gt;&lt;b&gt;%c4Name%&lt;/b&gt;&lt;/font&gt;&lt;div&gt;[%c4Type%: %c4Technology%]&lt;/div&gt;&lt;br&gt;&lt;div&gt;&lt;font style=&quot;font-size: 11px&quot;&gt;%c4Description%&lt;/font&gt;&lt;/div&gt;" id="J0IimUWWDeCO6wJw7x9u-2">
          <mxCell style="rounded=1;whiteSpace=wrap;html=1;labelBackgroundColor=none;fillColor=#63BEF2;fontColor=#ffffff;align=center;arcSize=6;strokeColor=#2086C9;metaEdit=1;resizable=0;points=[[0.25,0,0],[0.5,0,0],[0.75,0,0],[1,0.25,0],[1,0.5,0],[1,0.75,0],[0.75,1,0],[0.5,1,0],[0.25,1,0],[0,0.75,0],[0,0.5,0],[0,0.25,0]];" vertex="1" parent="1">
            <mxGeometry x="-130" y="50" width="240" height="120" as="geometry" />
          </mxCell>
        </object>
        <object placeholders="1" c4Name="Conflict Resolver" c4Type="Component" c4Technology="e.g. Spring Service" c4Description="Resolves detected scheduling conflicts.&#xa;" label="&lt;font style=&quot;font-size: 16px&quot;&gt;&lt;b&gt;%c4Name%&lt;/b&gt;&lt;/font&gt;&lt;div&gt;[%c4Type%: %c4Technology%]&lt;/div&gt;&lt;br&gt;&lt;div&gt;&lt;font style=&quot;font-size: 11px&quot;&gt;%c4Description%&lt;/font&gt;&lt;/div&gt;" id="J0IimUWWDeCO6wJw7x9u-3">
          <mxCell style="rounded=1;whiteSpace=wrap;html=1;labelBackgroundColor=none;fillColor=#63BEF2;fontColor=#ffffff;align=center;arcSize=6;strokeColor=#2086C9;metaEdit=1;resizable=0;points=[[0.25,0,0],[0.5,0,0],[0.75,0,0],[1,0.25,0],[1,0.5,0],[1,0.75,0],[0.75,1,0],[0.5,1,0],[0.25,1,0],[0,0.75,0],[0,0.5,0],[0,0.25,0]];" vertex="1" parent="1">
            <mxGeometry x="-510" y="270" width="240" height="120" as="geometry" />
          </mxCell>
        </object>
        <mxCell id="r1OYYBKXIhwqY2fLcspm-8" style="edgeStyle=orthogonalEdgeStyle;rounded=0;orthogonalLoop=1;jettySize=auto;html=1;dashed=1;dashPattern=8 8;exitX=0.5;exitY=1;exitDx=0;exitDy=0;exitPerimeter=0;entryX=0.5;entryY=0;entryDx=0;entryDy=0;entryPerimeter=0;" edge="1" parent="1" source="Afij30kt0t8DgFivJfkK-1" target="J0IimUWWDeCO6wJw7x9u-2">
          <mxGeometry relative="1" as="geometry">
            <Array as="points">
              <mxPoint x="-10" y="-60" />
              <mxPoint x="-10" y="-60" />
            </Array>
          </mxGeometry>
        </mxCell>
        <mxCell id="UUillZt8TukIQ8RCky7U-2" value="&lt;font style=&quot;font-size: 15px;&quot;&gt;Gets constraints for schedule creation.&lt;/font&gt;" style="edgeLabel;html=1;align=center;verticalAlign=middle;resizable=0;points=[];" connectable="0" vertex="1" parent="r1OYYBKXIhwqY2fLcspm-8">
          <mxGeometry x="0.3223" y="-1" relative="1" as="geometry">
            <mxPoint x="11" y="58" as="offset" />
          </mxGeometry>
        </mxCell>
        <mxCell id="Twv58QPuS34CHjaFf4kF-1" style="edgeStyle=orthogonalEdgeStyle;rounded=0;orthogonalLoop=1;jettySize=auto;html=1;dashed=1;dashPattern=8 8;exitX=1;exitY=0.5;exitDx=0;exitDy=0;exitPerimeter=0;entryX=0.25;entryY=0;entryDx=0;entryDy=0;entryPerimeter=0;" edge="1" parent="1" source="Afij30kt0t8DgFivJfkK-1" target="j1F6gH7u2w4V8ReqVOUI-1">
          <mxGeometry relative="1" as="geometry">
            <mxPoint x="520" y="-100" as="targetPoint" />
            <Array as="points">
              <mxPoint x="320" y="-300" />
            </Array>
          </mxGeometry>
        </mxCell>
        <mxCell id="wcCtwfBnRjrHpazM-P9H-3" value="&lt;span style=&quot;font-size: 15px;&quot;&gt;Sends algorithm results&lt;/span&gt;" style="edgeLabel;html=1;align=center;verticalAlign=middle;resizable=0;points=[];" connectable="0" vertex="1" parent="Twv58QPuS34CHjaFf4kF-1">
          <mxGeometry x="-0.399" y="-2" relative="1" as="geometry">
            <mxPoint x="29" y="-2" as="offset" />
          </mxGeometry>
        </mxCell>
        <mxCell id="Twv58QPuS34CHjaFf4kF-4" style="edgeStyle=orthogonalEdgeStyle;rounded=0;orthogonalLoop=1;jettySize=auto;html=1;dashed=1;dashPattern=8 8;entryX=0.5;entryY=0;entryDx=0;entryDy=0;entryPerimeter=0;exitX=0.25;exitY=1;exitDx=0;exitDy=0;exitPerimeter=0;" edge="1" parent="1" source="Afij30kt0t8DgFivJfkK-1" target="ZqEer7TvvcvFRKGN5MlV-1">
          <mxGeometry relative="1" as="geometry">
            <Array as="points">
              <mxPoint x="-70" y="-140" />
              <mxPoint x="-850" y="-140" />
            </Array>
          </mxGeometry>
        </mxCell>
        <mxCell id="wcCtwfBnRjrHpazM-P9H-4" value="&lt;font style=&quot;font-size: 15px;&quot;&gt;Logs generation results&lt;/font&gt;&lt;span style=&quot;font-size: 15px;&quot;&gt;.&lt;/span&gt;" style="edgeLabel;html=1;align=center;verticalAlign=middle;resizable=0;points=[];" connectable="0" vertex="1" parent="Twv58QPuS34CHjaFf4kF-4">
          <mxGeometry x="0.0886" y="-3" relative="1" as="geometry">
            <mxPoint x="-95" as="offset" />
          </mxGeometry>
        </mxCell>
        <object placeholders="1" c4Name="Schedule Generator" c4Type="Component" c4Technology="e.g. Spring Service" c4Description="Creates schedules based on input data.&#xa;" label="&lt;font style=&quot;font-size: 16px&quot;&gt;&lt;b&gt;%c4Name%&lt;/b&gt;&lt;/font&gt;&lt;div&gt;[%c4Type%: %c4Technology%]&lt;/div&gt;&lt;br&gt;&lt;div&gt;&lt;font style=&quot;font-size: 11px&quot;&gt;%c4Description%&lt;/font&gt;&lt;/div&gt;" id="Afij30kt0t8DgFivJfkK-1">
          <mxCell style="rounded=1;whiteSpace=wrap;html=1;labelBackgroundColor=none;fillColor=#63BEF2;fontColor=#ffffff;align=center;arcSize=6;strokeColor=#2086C9;metaEdit=1;resizable=0;points=[[0.25,0,0],[0.5,0,0],[0.75,0,0],[1,0.25,0],[1,0.5,0],[1,0.75,0],[0.75,1,0],[0.5,1,0],[0.25,1,0],[0,0.75,0],[0,0.5,0],[0,0.25,0]];" vertex="1" parent="1">
            <mxGeometry x="-130" y="-360" width="240" height="120" as="geometry" />
          </mxCell>
        </object>
        <mxCell id="r1OYYBKXIhwqY2fLcspm-5" style="edgeStyle=orthogonalEdgeStyle;rounded=0;orthogonalLoop=1;jettySize=auto;html=1;dashed=1;dashPattern=8 8;entryX=0.5;entryY=1;entryDx=0;entryDy=0;entryPerimeter=0;exitX=0.5;exitY=0;exitDx=0;exitDy=0;exitPerimeter=0;" edge="1" parent="1" source="jwLTC6z3_XA9MNkY0aBM-1" target="J0IimUWWDeCO6wJw7x9u-2">
          <mxGeometry relative="1" as="geometry" />
        </mxCell>
        <mxCell id="UUillZt8TukIQ8RCky7U-6" value="&lt;font style=&quot;font-size: 15px;&quot;&gt;Updates constraints with new rules.&lt;/font&gt;" style="edgeLabel;html=1;align=center;verticalAlign=middle;resizable=0;points=[];" connectable="0" vertex="1" parent="r1OYYBKXIhwqY2fLcspm-5">
          <mxGeometry x="-0.0444" relative="1" as="geometry">
            <mxPoint as="offset" />
          </mxGeometry>
        </mxCell>
        <object placeholders="1" c4Name="Rule Configuratiton Manager" c4Type="Component" c4Technology="e.g. Spring Service" c4Description="Stores and manages rules for scheduling.&#xa;" label="&lt;font style=&quot;font-size: 16px&quot;&gt;&lt;b&gt;%c4Name%&lt;/b&gt;&lt;/font&gt;&lt;div&gt;[%c4Type%: %c4Technology%]&lt;/div&gt;&lt;br&gt;&lt;div&gt;&lt;font style=&quot;font-size: 11px&quot;&gt;%c4Description%&lt;/font&gt;&lt;/div&gt;" id="jwLTC6z3_XA9MNkY0aBM-1">
          <mxCell style="rounded=1;whiteSpace=wrap;html=1;labelBackgroundColor=none;fillColor=#63BEF2;fontColor=#ffffff;align=center;arcSize=6;strokeColor=#2086C9;metaEdit=1;resizable=0;points=[[0.25,0,0],[0.5,0,0],[0.75,0,0],[1,0.25,0],[1,0.5,0],[1,0.75,0],[0.75,1,0],[0.5,1,0],[0.25,1,0],[0,0.75,0],[0,0.5,0],[0,0.25,0]];" vertex="1" parent="1">
            <mxGeometry x="-130" y="270" width="240" height="120" as="geometry" />
          </mxCell>
        </object>
        <mxCell id="r1OYYBKXIhwqY2fLcspm-3" style="edgeStyle=orthogonalEdgeStyle;rounded=0;orthogonalLoop=1;jettySize=auto;html=1;dashed=1;dashPattern=8 8;" edge="1" parent="1" source="r1OYYBKXIhwqY2fLcspm-1" target="J0IimUWWDeCO6wJw7x9u-1">
          <mxGeometry relative="1" as="geometry" />
        </mxCell>
        <mxCell id="ci-kfMzy5Hb5fcgAL533-2" value="&lt;font style=&quot;font-size: 15px;&quot;&gt;Sends scheduling&lt;/font&gt;&lt;div&gt;&lt;font style=&quot;font-size: 15px;&quot;&gt;requests&amp;nbsp;&lt;/font&gt;&lt;div&gt;&lt;font style=&quot;font-size: 15px;&quot;&gt;for validation&lt;/font&gt;&lt;span style=&quot;font-size: 15px;&quot;&gt;.&lt;/span&gt;&lt;/div&gt;&lt;/div&gt;" style="edgeLabel;html=1;align=center;verticalAlign=middle;resizable=0;points=[];" connectable="0" vertex="1" parent="r1OYYBKXIhwqY2fLcspm-3">
          <mxGeometry x="-0.1885" y="-2" relative="1" as="geometry">
            <mxPoint x="2" y="-2" as="offset" />
          </mxGeometry>
        </mxCell>
        <mxCell id="r1OYYBKXIhwqY2fLcspm-4" style="edgeStyle=orthogonalEdgeStyle;rounded=0;orthogonalLoop=1;jettySize=auto;html=1;dashed=1;dashPattern=8 8;exitX=1;exitY=0.5;exitDx=0;exitDy=0;exitPerimeter=0;entryX=0;entryY=0.5;entryDx=0;entryDy=0;entryPerimeter=0;" edge="1" parent="1" source="r1OYYBKXIhwqY2fLcspm-1" target="Afij30kt0t8DgFivJfkK-1">
          <mxGeometry relative="1" as="geometry" />
        </mxCell>
        <mxCell id="UUillZt8TukIQ8RCky7U-1" value="&lt;font style=&quot;font-size: 15px;&quot;&gt;Sends scheduling&lt;/font&gt;&lt;div&gt;&lt;font style=&quot;font-size: 15px;&quot;&gt;requests&amp;nbsp;&lt;/font&gt;&lt;div&gt;&lt;font style=&quot;font-size: 15px;&quot;&gt;for generation.&lt;/font&gt;&lt;/div&gt;&lt;/div&gt;" style="edgeLabel;html=1;align=center;verticalAlign=middle;resizable=0;points=[];" connectable="0" vertex="1" parent="r1OYYBKXIhwqY2fLcspm-4">
          <mxGeometry x="-0.2286" y="4" relative="1" as="geometry">
            <mxPoint x="16" as="offset" />
          </mxGeometry>
        </mxCell>
        <object placeholders="1" c4Name="Request Handler" c4Type="Component" c4Technology="e.g. Spring Service" c4Description="Handles incoming scheduling requests.&#xa;" label="&lt;font style=&quot;font-size: 16px&quot;&gt;&lt;b&gt;%c4Name%&lt;/b&gt;&lt;/font&gt;&lt;div&gt;[%c4Type%: %c4Technology%]&lt;/div&gt;&lt;br&gt;&lt;div&gt;&lt;font style=&quot;font-size: 11px&quot;&gt;%c4Description%&lt;/font&gt;&lt;/div&gt;" id="r1OYYBKXIhwqY2fLcspm-1">
          <mxCell style="rounded=1;whiteSpace=wrap;html=1;labelBackgroundColor=none;fillColor=#63BEF2;fontColor=#ffffff;align=center;arcSize=6;strokeColor=#2086C9;metaEdit=1;resizable=0;points=[[0.25,0,0],[0.5,0,0],[0.75,0,0],[1,0.25,0],[1,0.5,0],[1,0.75,0],[0.75,1,0],[0.5,1,0],[0.25,1,0],[0,0.75,0],[0,0.5,0],[0,0.25,0]];" vertex="1" parent="1">
            <mxGeometry x="-510" y="-360" width="240" height="120" as="geometry" />
          </mxCell>
        </object>
      </root>
    </mxGraphModel>
  </diagram>
</mxfile>
